G75*
%MOIN*%
%OFA0B0*%
%FSLAX25Y25*%
%IPPOS*%
%LPD*%
%AMOC8*
5,1,8,0,0,1.08239X$1,22.5*
%
%ADD10C,0.00700*%
%ADD11C,0.00400*%
%ADD12C,0.01600*%
%ADD13C,0.00600*%
%ADD14C,0.00300*%
%ADD15C,0.00000*%
%ADD16C,0.01000*%
%ADD17C,0.01181*%
%ADD18R,0.00025X0.00025*%
%ADD19R,0.00024X0.00025*%
%ADD20R,0.00049X0.00025*%
%ADD21R,0.00074X0.00025*%
%ADD22R,0.00615X0.00025*%
%ADD23R,0.00024X0.00025*%
%ADD24R,0.00049X0.00025*%
%ADD25R,0.02313X0.00025*%
%ADD26R,0.00025X0.00025*%
%ADD27R,0.00024X0.00025*%
%ADD28R,0.03199X0.00025*%
%ADD29R,0.00025X0.00025*%
%ADD30R,0.03789X0.00025*%
%ADD31R,0.04355X0.00025*%
%ADD32R,0.04823X0.00025*%
%ADD33R,0.05192X0.00025*%
%ADD34R,0.05585X0.00025*%
%ADD35R,0.05930X0.00025*%
%ADD36R,0.06250X0.00025*%
%ADD37R,0.06521X0.00025*%
%ADD38R,0.06791X0.00025*%
%ADD39R,0.07037X0.00025*%
%ADD40R,0.07308X0.00025*%
%ADD41R,0.07530X0.00025*%
%ADD42R,0.07751X0.00025*%
%ADD43R,0.07972X0.00025*%
%ADD44R,0.08194X0.00025*%
%ADD45R,0.08366X0.00025*%
%ADD46R,0.08563X0.00025*%
%ADD47R,0.08735X0.00025*%
%ADD48R,0.08932X0.00025*%
%ADD49R,0.09104X0.00025*%
%ADD50R,0.09276X0.00025*%
%ADD51R,0.09449X0.00025*%
%ADD52R,0.09596X0.00025*%
%ADD53R,0.09744X0.00025*%
%ADD54R,0.09892X0.00025*%
%ADD55R,0.10015X0.00025*%
%ADD56R,0.10187X0.00025*%
%ADD57R,0.10310X0.00025*%
%ADD58R,0.10433X0.00025*%
%ADD59R,0.10581X0.00025*%
%ADD60R,0.10704X0.00025*%
%ADD61R,0.10827X0.00025*%
%ADD62R,0.10974X0.00025*%
%ADD63R,0.11073X0.00025*%
%ADD64R,0.11220X0.00025*%
%ADD65R,0.11319X0.00025*%
%ADD66R,0.11442X0.00025*%
%ADD67R,0.11565X0.00025*%
%ADD68R,0.11663X0.00025*%
%ADD69R,0.11786X0.00025*%
%ADD70R,0.11860X0.00025*%
%ADD71R,0.11983X0.00025*%
%ADD72R,0.12106X0.00025*%
%ADD73R,0.12180X0.00025*%
%ADD74R,0.12279X0.00025*%
%ADD75R,0.12377X0.00025*%
%ADD76R,0.12476X0.00025*%
%ADD77R,0.12549X0.00025*%
%ADD78R,0.12672X0.00025*%
%ADD79R,0.12746X0.00025*%
%ADD80R,0.12820X0.00025*%
%ADD81R,0.12943X0.00025*%
%ADD82R,0.13017X0.00025*%
%ADD83R,0.13091X0.00025*%
%ADD84R,0.13165X0.00025*%
%ADD85R,0.13263X0.00025*%
%ADD86R,0.13337X0.00025*%
%ADD87R,0.13410X0.00025*%
%ADD88R,0.13509X0.00025*%
%ADD89R,0.13558X0.00025*%
%ADD90R,0.13657X0.00025*%
%ADD91R,0.13706X0.00025*%
%ADD92R,0.13804X0.00025*%
%ADD93R,0.13854X0.00025*%
%ADD94R,0.13952X0.00025*%
%ADD95R,0.14001X0.00025*%
%ADD96R,0.14075X0.00025*%
%ADD97R,0.14149X0.00025*%
%ADD98R,0.14198X0.00025*%
%ADD99R,0.14247X0.00025*%
%ADD100R,0.14321X0.00025*%
%ADD101R,0.14394X0.00025*%
%ADD102R,0.14444X0.00025*%
%ADD103R,0.14518X0.00025*%
%ADD104R,0.14567X0.00025*%
%ADD105R,0.14641X0.00025*%
%ADD106R,0.14690X0.00025*%
%ADD107R,0.14739X0.00025*%
%ADD108R,0.14813X0.00025*%
%ADD109R,0.14838X0.00025*%
%ADD110R,0.14911X0.00025*%
%ADD111R,0.14985X0.00025*%
%ADD112R,0.15010X0.00025*%
%ADD113R,0.15083X0.00025*%
%ADD114R,0.15108X0.00025*%
%ADD115R,0.15182X0.00025*%
%ADD116R,0.15207X0.00025*%
%ADD117R,0.15280X0.00025*%
%ADD118R,0.15305X0.00025*%
%ADD119R,0.15379X0.00025*%
%ADD120R,0.15404X0.00025*%
%ADD121R,0.15477X0.00025*%
%ADD122R,0.15551X0.00025*%
%ADD123R,0.15600X0.00025*%
%ADD124R,0.15625X0.00025*%
%ADD125R,0.15674X0.00025*%
%ADD126R,0.15724X0.00025*%
%ADD127R,0.15748X0.00025*%
%ADD128R,0.15797X0.00025*%
%ADD129R,0.15846X0.00025*%
%ADD130R,0.15871X0.00025*%
%ADD131R,0.15896X0.00025*%
%ADD132R,0.15945X0.00025*%
%ADD133R,0.15994X0.00025*%
%ADD134R,0.16019X0.00025*%
%ADD135R,0.16068X0.00025*%
%ADD136R,0.16093X0.00025*%
%ADD137R,0.16142X0.00025*%
%ADD138R,0.16166X0.00025*%
%ADD139R,0.16191X0.00025*%
%ADD140R,0.16216X0.00025*%
%ADD141R,0.16240X0.00025*%
%ADD142R,0.16314X0.00025*%
%ADD143R,0.16363X0.00025*%
%ADD144R,0.16388X0.00025*%
%ADD145R,0.16461X0.00025*%
%ADD146R,0.16461X0.00025*%
%ADD147R,0.16511X0.00025*%
%ADD148R,0.16535X0.00025*%
%ADD149R,0.16585X0.00025*%
%ADD150R,0.16609X0.00025*%
%ADD151R,0.16634X0.00025*%
%ADD152R,0.07997X0.00025*%
%ADD153R,0.08169X0.00025*%
%ADD154R,0.07579X0.00025*%
%ADD155R,0.07825X0.00025*%
%ADD156R,0.07431X0.00025*%
%ADD157R,0.07603X0.00025*%
%ADD158R,0.07259X0.00025*%
%ADD159R,0.07480X0.00025*%
%ADD160R,0.07160X0.00025*%
%ADD161R,0.07357X0.00025*%
%ADD162R,0.07013X0.00025*%
%ADD163R,0.07283X0.00025*%
%ADD164R,0.06964X0.00025*%
%ADD165R,0.06865X0.00025*%
%ADD166R,0.07087X0.00025*%
%ADD167R,0.06791X0.00025*%
%ADD168R,0.07062X0.00025*%
%ADD169R,0.06717X0.00025*%
%ADD170R,0.06693X0.00025*%
%ADD171R,0.06914X0.00025*%
%ADD172R,0.06594X0.00025*%
%ADD173R,0.06545X0.00025*%
%ADD174R,0.06841X0.00025*%
%ADD175R,0.06520X0.00025*%
%ADD176R,0.06791X0.00025*%
%ADD177R,0.06496X0.00025*%
%ADD178R,0.06718X0.00025*%
%ADD179R,0.06398X0.00025*%
%ADD180R,0.06668X0.00025*%
%ADD181R,0.06373X0.00025*%
%ADD182R,0.06619X0.00025*%
%ADD183R,0.06324X0.00025*%
%ADD184R,0.06619X0.00025*%
%ADD185R,0.06299X0.00025*%
%ADD186R,0.06545X0.00025*%
%ADD187R,0.06570X0.00025*%
%ADD188R,0.06520X0.00025*%
%ADD189R,0.06226X0.00025*%
%ADD190R,0.06496X0.00025*%
%ADD191R,0.06201X0.00025*%
%ADD192R,0.06471X0.00025*%
%ADD193R,0.06176X0.00025*%
%ADD194R,0.06447X0.00025*%
%ADD195R,0.06127X0.00025*%
%ADD196R,0.06422X0.00025*%
%ADD197R,0.06102X0.00025*%
%ADD198R,0.06078X0.00025*%
%ADD199R,0.06348X0.00025*%
%ADD200R,0.06029X0.00025*%
%ADD201R,0.06028X0.00025*%
%ADD202R,0.06004X0.00025*%
%ADD203R,0.06299X0.00025*%
%ADD204R,0.06004X0.00025*%
%ADD205R,0.06299X0.00025*%
%ADD206R,0.05979X0.00025*%
%ADD207R,0.05980X0.00025*%
%ADD208R,0.05980X0.00025*%
%ADD209R,0.06275X0.00025*%
%ADD210R,0.05930X0.00025*%
%ADD211R,0.05906X0.00025*%
%ADD212R,0.05930X0.00025*%
%ADD213R,0.06225X0.00025*%
%ADD214R,0.05906X0.00025*%
%ADD215R,0.05881X0.00025*%
%ADD216R,0.06176X0.00025*%
%ADD217R,0.05906X0.00025*%
%ADD218R,0.05856X0.00025*%
%ADD219R,0.05856X0.00025*%
%ADD220R,0.05831X0.00025*%
%ADD221R,0.05832X0.00025*%
%ADD222R,0.06201X0.00025*%
%ADD223R,0.05807X0.00025*%
%ADD224R,0.05832X0.00025*%
%ADD225R,0.06201X0.00025*%
%ADD226R,0.05807X0.00025*%
%ADD227R,0.06127X0.00025*%
%ADD228R,0.06176X0.00025*%
%ADD229R,0.05783X0.00025*%
%ADD230R,0.05807X0.00025*%
%ADD231R,0.06152X0.00025*%
%ADD232R,0.05782X0.00025*%
%ADD233R,0.06152X0.00025*%
%ADD234R,0.05782X0.00025*%
%ADD235R,0.06152X0.00025*%
%ADD236R,0.05758X0.00025*%
%ADD237R,0.06127X0.00025*%
%ADD238R,0.05733X0.00025*%
%ADD239R,0.05758X0.00025*%
%ADD240R,0.05733X0.00025*%
%ADD241R,0.06127X0.00025*%
%ADD242R,0.05733X0.00025*%
%ADD243R,0.05709X0.00025*%
%ADD244R,0.05684X0.00025*%
%ADD245R,0.05684X0.00025*%
%ADD246R,0.06127X0.00025*%
%ADD247R,0.05684X0.00025*%
%ADD248R,0.05659X0.00025*%
%ADD249R,0.06226X0.00025*%
%ADD250R,0.06225X0.00025*%
%ADD251R,0.06250X0.00025*%
%ADD252R,0.06250X0.00025*%
%ADD253R,0.06324X0.00025*%
%ADD254R,0.06373X0.00025*%
%ADD255R,0.06422X0.00025*%
%ADD256R,0.06422X0.00025*%
%ADD257R,0.06472X0.00025*%
%ADD258R,0.06644X0.00025*%
%ADD259R,0.06742X0.00025*%
%ADD260R,0.06816X0.00025*%
%ADD261R,0.06841X0.00025*%
%ADD262R,0.07062X0.00025*%
%ADD263R,0.07136X0.00025*%
%ADD264R,0.07259X0.00025*%
%ADD265R,0.07333X0.00025*%
%ADD266R,0.07456X0.00025*%
%ADD267R,0.07776X0.00025*%
%ADD268R,0.07997X0.00025*%
%ADD269R,0.09621X0.00025*%
%ADD270R,0.09572X0.00025*%
%ADD271R,0.09572X0.00025*%
%ADD272R,0.09547X0.00025*%
%ADD273R,0.09523X0.00025*%
%ADD274R,0.09522X0.00025*%
%ADD275R,0.09522X0.00025*%
%ADD276R,0.09473X0.00025*%
%ADD277R,0.09424X0.00025*%
%ADD278R,0.09375X0.00025*%
%ADD279R,0.09375X0.00025*%
%ADD280R,0.09301X0.00025*%
%ADD281R,0.09326X0.00025*%
%ADD282R,0.09301X0.00025*%
%ADD283R,0.09252X0.00025*%
%ADD284R,0.09228X0.00025*%
%ADD285R,0.09227X0.00025*%
%ADD286R,0.09178X0.00025*%
%ADD287R,0.09154X0.00025*%
%ADD288R,0.09129X0.00025*%
%ADD289R,0.09104X0.00025*%
%ADD290R,0.09055X0.00025*%
%ADD291R,0.09030X0.00025*%
%ADD292R,0.09030X0.00025*%
%ADD293R,0.08981X0.00025*%
%ADD294R,0.08932X0.00025*%
%ADD295R,0.08907X0.00025*%
%ADD296R,0.08883X0.00025*%
%ADD297R,0.08809X0.00025*%
%ADD298R,0.08760X0.00025*%
%ADD299R,0.08711X0.00025*%
%ADD300R,0.08686X0.00025*%
%ADD301R,0.08661X0.00025*%
%ADD302R,0.08612X0.00025*%
%ADD303R,0.08539X0.00025*%
%ADD304R,0.08514X0.00025*%
%ADD305R,0.08489X0.00025*%
%ADD306R,0.08391X0.00025*%
%ADD307R,0.08391X0.00025*%
%ADD308R,0.08317X0.00025*%
%ADD309R,0.08243X0.00025*%
%ADD310R,0.08219X0.00025*%
%ADD311R,0.08169X0.00025*%
%ADD312R,0.08095X0.00025*%
%ADD313R,0.08022X0.00025*%
%ADD314R,0.07923X0.00025*%
%ADD315R,0.07776X0.00025*%
%ADD316R,0.07702X0.00025*%
%ADD317R,0.07604X0.00025*%
%ADD318R,0.07554X0.00025*%
%ADD319R,0.07480X0.00025*%
%ADD320R,0.07382X0.00025*%
%ADD321R,0.07234X0.00025*%
%ADD322R,0.07308X0.00025*%
%ADD323R,0.07406X0.00025*%
%ADD324R,0.07456X0.00025*%
%ADD325R,0.07505X0.00025*%
%ADD326R,0.07579X0.00025*%
%ADD327R,0.07628X0.00025*%
%ADD328R,0.07702X0.00025*%
%ADD329R,0.07726X0.00025*%
%ADD330R,0.07800X0.00025*%
%ADD331R,0.07849X0.00025*%
%ADD332R,0.07874X0.00025*%
%ADD333R,0.07948X0.00025*%
%ADD334R,0.08095X0.00025*%
%ADD335R,0.08120X0.00025*%
%ADD336R,0.08169X0.00025*%
%ADD337R,0.08243X0.00025*%
%ADD338R,0.08292X0.00025*%
%ADD339R,0.08293X0.00025*%
%ADD340R,0.08415X0.00025*%
%ADD341R,0.08465X0.00025*%
%ADD342R,0.08489X0.00025*%
%ADD343R,0.08587X0.00025*%
%ADD344R,0.08588X0.00025*%
%ADD345R,0.08637X0.00025*%
%ADD346R,0.07898X0.00025*%
%ADD347R,0.07185X0.00025*%
%ADD348R,0.06644X0.00025*%
%ADD349R,0.06545X0.00025*%
%ADD350R,0.06422X0.00025*%
%ADD351R,0.06274X0.00025*%
%ADD352R,0.06053X0.00025*%
%ADD353R,0.06053X0.00025*%
%ADD354R,0.05979X0.00025*%
%ADD355R,0.05856X0.00025*%
%ADD356R,0.05831X0.00025*%
%ADD357R,0.05832X0.00025*%
%ADD358R,0.05783X0.00025*%
%ADD359R,0.05758X0.00025*%
%ADD360R,0.05733X0.00025*%
%ADD361R,0.05733X0.00025*%
%ADD362R,0.05684X0.00025*%
%ADD363R,0.05709X0.00025*%
%ADD364R,0.05709X0.00025*%
%ADD365R,0.00098X0.00025*%
%ADD366R,0.05463X0.00025*%
%ADD367R,0.05586X0.00025*%
%ADD368R,0.05586X0.00025*%
%ADD369R,0.05684X0.00025*%
%ADD370R,0.05610X0.00025*%
%ADD371R,0.05610X0.00025*%
%ADD372R,0.05635X0.00025*%
%ADD373R,0.05635X0.00025*%
%ADD374R,0.05635X0.00025*%
%ADD375R,0.05881X0.00025*%
%ADD376R,0.05930X0.00025*%
%ADD377R,0.05955X0.00025*%
%ADD378R,0.05881X0.00025*%
%ADD379R,0.06053X0.00025*%
%ADD380R,0.06078X0.00025*%
%ADD381R,0.06004X0.00025*%
%ADD382R,0.06078X0.00025*%
%ADD383R,0.06176X0.00025*%
%ADD384R,0.06102X0.00025*%
%ADD385R,0.06274X0.00025*%
%ADD386R,0.06471X0.00025*%
%ADD387R,0.06644X0.00025*%
%ADD388R,0.06742X0.00025*%
%ADD389R,0.06767X0.00025*%
%ADD390R,0.06963X0.00025*%
%ADD391R,0.07037X0.00025*%
%ADD392R,0.07259X0.00025*%
%ADD393R,0.15797X0.00025*%
%ADD394R,0.15773X0.00025*%
%ADD395R,0.15723X0.00025*%
%ADD396R,0.15723X0.00025*%
%ADD397R,0.15699X0.00025*%
%ADD398R,0.15699X0.00025*%
%ADD399R,0.15625X0.00025*%
%ADD400R,0.15527X0.00025*%
%ADD401R,0.15477X0.00025*%
%ADD402R,0.15428X0.00025*%
%ADD403R,0.15354X0.00025*%
%ADD404R,0.15330X0.00025*%
%ADD405R,0.15305X0.00025*%
%ADD406R,0.15256X0.00025*%
%ADD407R,0.15231X0.00025*%
%ADD408R,0.15157X0.00025*%
%ADD409R,0.15133X0.00025*%
%ADD410R,0.15084X0.00025*%
%ADD411R,0.15034X0.00025*%
%ADD412R,0.14961X0.00025*%
%ADD413R,0.14936X0.00025*%
%ADD414R,0.05217X0.00025*%
%ADD415R,0.14862X0.00025*%
%ADD416R,0.14813X0.00025*%
%ADD417R,0.14764X0.00025*%
%ADD418R,0.05192X0.00025*%
%ADD419R,0.14715X0.00025*%
%ADD420R,0.05192X0.00025*%
%ADD421R,0.14690X0.00025*%
%ADD422R,0.05192X0.00025*%
%ADD423R,0.14591X0.00025*%
%ADD424R,0.05167X0.00025*%
%ADD425R,0.14616X0.00025*%
%ADD426R,0.05143X0.00025*%
%ADD427R,0.14592X0.00025*%
%ADD428R,0.05143X0.00025*%
%ADD429R,0.14542X0.00025*%
%ADD430R,0.05143X0.00025*%
%ADD431R,0.14543X0.00025*%
%ADD432R,0.05118X0.00025*%
%ADD433R,0.14542X0.00025*%
%ADD434R,0.14493X0.00025*%
%ADD435R,0.05118X0.00025*%
%ADD436R,0.14493X0.00025*%
%ADD437R,0.14469X0.00025*%
%ADD438R,0.05093X0.00025*%
%ADD439R,0.14444X0.00025*%
%ADD440R,0.05093X0.00025*%
%ADD441R,0.14444X0.00025*%
%ADD442R,0.05094X0.00025*%
%ADD443R,0.14395X0.00025*%
%ADD444R,0.05094X0.00025*%
%ADD445R,0.14370X0.00025*%
%ADD446R,0.05044X0.00025*%
%ADD447R,0.14345X0.00025*%
%ADD448R,0.05069X0.00025*%
%ADD449R,0.14296X0.00025*%
%ADD450R,0.14247X0.00025*%
%ADD451R,0.05069X0.00025*%
%ADD452R,0.14272X0.00025*%
%ADD453R,0.05044X0.00025*%
%ADD454R,0.14222X0.00025*%
%ADD455R,0.05020X0.00025*%
%ADD456R,0.05044X0.00025*%
%ADD457R,0.14173X0.00025*%
%ADD458R,0.14148X0.00025*%
%ADD459R,0.14124X0.00025*%
%ADD460R,0.14099X0.00025*%
%ADD461R,0.04995X0.00025*%
%ADD462R,0.14100X0.00025*%
%ADD463R,0.14026X0.00025*%
%ADD464R,0.04995X0.00025*%
%ADD465R,0.14026X0.00025*%
%ADD466R,0.04995X0.00025*%
%ADD467R,0.14001X0.00025*%
%ADD468R,0.04995X0.00025*%
%ADD469R,0.13976X0.00025*%
%ADD470R,0.04970X0.00025*%
%ADD471R,0.13927X0.00025*%
%ADD472R,0.13903X0.00025*%
%ADD473R,0.13878X0.00025*%
%ADD474R,0.04946X0.00025*%
%ADD475R,0.13804X0.00025*%
%ADD476R,0.13780X0.00025*%
%ADD477R,0.13730X0.00025*%
%ADD478R,0.04946X0.00025*%
%ADD479R,0.13730X0.00025*%
%ADD480R,0.04970X0.00025*%
%ADD481R,0.13681X0.00025*%
%ADD482R,0.13632X0.00025*%
%ADD483R,0.04921X0.00025*%
%ADD484R,0.13583X0.00025*%
%ADD485R,0.13558X0.00025*%
%ADD486R,0.13533X0.00025*%
%ADD487R,0.13459X0.00025*%
%ADD488R,0.13435X0.00025*%
%ADD489R,0.13386X0.00025*%
%ADD490R,0.04896X0.00025*%
%ADD491R,0.13337X0.00025*%
%ADD492R,0.04921X0.00025*%
%ADD493R,0.13287X0.00025*%
%ADD494R,0.04896X0.00025*%
%ADD495R,0.13238X0.00025*%
%ADD496R,0.13189X0.00025*%
%ADD497R,0.13140X0.00025*%
%ADD498R,0.04872X0.00025*%
%ADD499R,0.13017X0.00025*%
%ADD500R,0.12967X0.00025*%
%ADD501R,0.12919X0.00025*%
%ADD502R,0.04848X0.00025*%
%ADD503R,0.12844X0.00025*%
%ADD504R,0.04897X0.00025*%
%ADD505R,0.12795X0.00025*%
%ADD506R,0.04848X0.00025*%
%ADD507R,0.12722X0.00025*%
%ADD508R,0.04847X0.00025*%
%ADD509R,0.12648X0.00025*%
%ADD510R,0.04847X0.00025*%
%ADD511R,0.07800X0.00025*%
%ADD512R,0.04675X0.00025*%
%ADD513R,0.04626X0.00025*%
%ADD514R,0.07382X0.00025*%
%ADD515R,0.07161X0.00025*%
%ADD516R,0.04602X0.00025*%
%ADD517R,0.06915X0.00025*%
%ADD518R,0.04798X0.00025*%
%ADD519R,0.06447X0.00025*%
%ADD520R,0.04626X0.00025*%
%ADD521R,0.04798X0.00025*%
%ADD522R,0.06176X0.00025*%
%ADD523R,0.09424X0.00025*%
%ADD524R,0.09350X0.00025*%
%ADD525R,0.05561X0.00025*%
%ADD526R,0.09203X0.00025*%
%ADD527R,0.04380X0.00025*%
%ADD528R,0.03962X0.00025*%
%ADD529R,0.03420X0.00025*%
%ADD530R,0.09031X0.00025*%
%ADD531R,0.02731X0.00025*%
%ADD532R,0.09006X0.00025*%
%ADD533R,0.01845X0.00025*%
%ADD534R,0.08981X0.00025*%
%ADD535R,0.08883X0.00025*%
%ADD536R,0.08858X0.00025*%
%ADD537R,0.08735X0.00025*%
%ADD538R,0.08440X0.00025*%
%ADD539R,0.08391X0.00025*%
%ADD540R,0.08342X0.00025*%
%ADD541R,0.08292X0.00025*%
%ADD542R,0.08194X0.00025*%
%ADD543R,0.08145X0.00025*%
%ADD544R,0.08095X0.00025*%
%ADD545R,0.08046X0.00025*%
%ADD546R,0.07948X0.00025*%
%ADD547R,0.07898X0.00025*%
%ADD548R,0.07850X0.00025*%
%ADD549R,0.07751X0.00025*%
%ADD550R,0.07653X0.00025*%
%ADD551R,0.07554X0.00025*%
%ADD552R,0.07505X0.00025*%
%ADD553R,0.07406X0.00025*%
%ADD554R,0.07357X0.00025*%
%ADD555R,0.07209X0.00025*%
%ADD556R,0.06988X0.00025*%
%ADD557R,0.06939X0.00025*%
%ADD558R,0.06890X0.00025*%
%ADD559R,0.06742X0.00025*%
%ADD560R,0.06398X0.00025*%
%ADD561R,0.05979X0.00025*%
%ADD562R,0.05955X0.00025*%
%ADD563R,0.05782X0.00025*%
%ADD564R,0.05537X0.00025*%
%ADD565R,0.05512X0.00025*%
%ADD566R,0.05536X0.00025*%
%ADD567R,0.05980X0.00025*%
%ADD568R,0.06225X0.00025*%
%ADD569R,0.06275X0.00025*%
%ADD570R,0.06570X0.00025*%
%ADD571R,0.06669X0.00025*%
%ADD572R,0.06816X0.00025*%
%ADD573R,0.06865X0.00025*%
%ADD574R,0.06939X0.00025*%
%ADD575R,0.07013X0.00025*%
%ADD576R,0.07062X0.00025*%
%ADD577R,0.07136X0.00025*%
%ADD578R,0.07161X0.00025*%
%ADD579R,0.07283X0.00025*%
%ADD580R,0.07333X0.00025*%
%ADD581R,0.07431X0.00025*%
%ADD582R,0.07480X0.00025*%
%ADD583R,0.07530X0.00025*%
%ADD584R,0.07603X0.00025*%
%ADD585R,0.07652X0.00025*%
%ADD586R,0.07825X0.00025*%
%ADD587R,0.08096X0.00025*%
%ADD588R,0.08120X0.00025*%
%ADD589R,0.08243X0.00025*%
%ADD590R,0.08268X0.00025*%
%ADD591R,0.08341X0.00025*%
%ADD592R,0.08391X0.00025*%
%ADD593R,0.08465X0.00025*%
%ADD594R,0.08489X0.00025*%
%ADD595R,0.08538X0.00025*%
%ADD596R,0.08612X0.00025*%
%ADD597R,0.08711X0.00025*%
%ADD598R,0.08760X0.00025*%
%ADD599R,0.08858X0.00025*%
%ADD600R,0.08932X0.00025*%
%ADD601R,0.08981X0.00025*%
%ADD602R,0.09080X0.00025*%
%ADD603R,0.09129X0.00025*%
%ADD604R,0.09178X0.00025*%
%ADD605R,0.09227X0.00025*%
%ADD606R,0.09277X0.00025*%
%ADD607R,0.09400X0.00025*%
%ADD608R,0.04724X0.00025*%
%ADD609R,0.04650X0.00025*%
%ADD610R,0.04700X0.00025*%
%ADD611R,0.04700X0.00025*%
%ADD612R,0.04724X0.00025*%
%ADD613R,0.04724X0.00025*%
%ADD614R,0.04700X0.00025*%
%ADD615R,0.04700X0.00025*%
%ADD616R,0.04749X0.00025*%
%ADD617R,0.04749X0.00025*%
%ADD618R,0.04749X0.00025*%
%ADD619R,0.04749X0.00025*%
%ADD620R,0.04774X0.00025*%
%ADD621R,0.04749X0.00025*%
%ADD622R,0.04774X0.00025*%
%ADD623R,0.04774X0.00025*%
%ADD624R,0.04823X0.00025*%
%ADD625R,0.04798X0.00025*%
%ADD626R,0.04798X0.00025*%
%ADD627R,0.04798X0.00025*%
%ADD628R,0.04847X0.00025*%
%ADD629R,0.04823X0.00025*%
%ADD630R,0.04848X0.00025*%
%ADD631R,0.04872X0.00025*%
%ADD632R,0.04872X0.00025*%
%ADD633R,0.04896X0.00025*%
%ADD634R,0.04897X0.00025*%
%ADD635R,0.04897X0.00025*%
%ADD636R,0.04921X0.00025*%
%ADD637R,0.04946X0.00025*%
%ADD638R,0.04970X0.00025*%
%ADD639R,0.05020X0.00025*%
%ADD640R,0.05020X0.00025*%
%ADD641R,0.05069X0.00025*%
D10*
X0272386Y0011760D02*
X0275021Y0011760D01*
X0273703Y0011760D02*
X0273703Y0019667D01*
X0275021Y0019667D01*
X0277667Y0017031D02*
X0278985Y0017031D01*
X0281620Y0014395D01*
X0281620Y0011760D02*
X0281620Y0017031D01*
X0284268Y0015713D02*
X0284268Y0011760D01*
X0288221Y0011760D01*
X0289539Y0013078D01*
X0288221Y0014395D01*
X0284268Y0014395D01*
X0284268Y0015713D02*
X0285586Y0017031D01*
X0288221Y0017031D01*
X0292187Y0018349D02*
X0293504Y0019667D01*
X0296140Y0019667D01*
X0297458Y0018349D01*
X0297458Y0013078D01*
X0296140Y0011760D01*
X0293504Y0011760D01*
X0292187Y0013078D01*
D11*
X0231476Y0027114D02*
X0228874Y0027114D01*
X0228006Y0027981D01*
X0228874Y0028848D01*
X0230608Y0028848D01*
X0231476Y0029716D01*
X0230608Y0030583D01*
X0228006Y0030583D01*
X0226319Y0029716D02*
X0226319Y0027981D01*
X0225452Y0027114D01*
X0223717Y0027114D01*
X0222850Y0028848D02*
X0226319Y0028848D01*
X0226319Y0029716D02*
X0225452Y0030583D01*
X0223717Y0030583D01*
X0222850Y0029716D01*
X0222850Y0028848D01*
X0221163Y0028848D02*
X0219428Y0030583D01*
X0218561Y0030583D01*
X0221163Y0030583D02*
X0221163Y0027114D01*
X0216866Y0027114D02*
X0215999Y0027114D01*
X0215999Y0027981D01*
X0216866Y0027981D01*
X0216866Y0027114D01*
D12*
X0212487Y0021942D02*
X0212487Y0035721D01*
X0101907Y0035721D01*
X0101907Y0021942D01*
X0212487Y0021942D01*
D13*
X0201036Y0046576D02*
X0196766Y0046576D01*
X0194590Y0047644D02*
X0190320Y0051914D01*
X0190320Y0047644D01*
X0191388Y0046576D01*
X0193523Y0046576D01*
X0194590Y0047644D01*
X0194590Y0051914D01*
X0193523Y0052982D01*
X0191388Y0052982D01*
X0190320Y0051914D01*
X0188145Y0050846D02*
X0186010Y0052982D01*
X0186010Y0046576D01*
X0188145Y0046576D02*
X0183875Y0046576D01*
X0181699Y0047644D02*
X0181699Y0048711D01*
X0180632Y0049779D01*
X0178497Y0049779D01*
X0177429Y0048711D01*
X0177429Y0047644D01*
X0178497Y0046576D01*
X0180632Y0046576D01*
X0181699Y0047644D01*
X0180632Y0049779D02*
X0181699Y0050846D01*
X0181699Y0051914D01*
X0180632Y0052982D01*
X0178497Y0052982D01*
X0177429Y0051914D01*
X0177429Y0050846D01*
X0178497Y0049779D01*
X0175254Y0046576D02*
X0170984Y0052982D01*
X0168808Y0051914D02*
X0167741Y0052982D01*
X0165606Y0052982D01*
X0164538Y0051914D01*
X0168808Y0047644D01*
X0167741Y0046576D01*
X0165606Y0046576D01*
X0164538Y0047644D01*
X0164538Y0051914D01*
X0162363Y0051914D02*
X0161295Y0052982D01*
X0159160Y0052982D01*
X0158093Y0051914D01*
X0162363Y0047644D01*
X0161295Y0046576D01*
X0159160Y0046576D01*
X0158093Y0047644D01*
X0158093Y0051914D01*
X0155917Y0051914D02*
X0154850Y0052982D01*
X0152715Y0052982D01*
X0151647Y0051914D01*
X0151647Y0050846D01*
X0155917Y0046576D01*
X0151647Y0046576D01*
X0162363Y0047644D02*
X0162363Y0051914D01*
X0168808Y0051914D02*
X0168808Y0047644D01*
X0143026Y0048711D02*
X0140891Y0046576D01*
X0138756Y0048711D01*
X0138756Y0052982D01*
X0136581Y0051914D02*
X0135513Y0052982D01*
X0133378Y0052982D01*
X0132311Y0051914D01*
X0136581Y0047644D01*
X0135513Y0046576D01*
X0133378Y0046576D01*
X0132311Y0047644D01*
X0132311Y0051914D01*
X0130135Y0050846D02*
X0128000Y0052982D01*
X0128000Y0046576D01*
X0130135Y0046576D02*
X0125865Y0046576D01*
X0136581Y0047644D02*
X0136581Y0051914D01*
X0143026Y0052982D02*
X0143026Y0048711D01*
X0196766Y0050846D02*
X0196766Y0051914D01*
X0197833Y0052982D01*
X0199968Y0052982D01*
X0201036Y0051914D01*
X0196766Y0050846D02*
X0201036Y0046576D01*
D14*
X0166428Y0077906D02*
X0165756Y0077906D01*
X0165084Y0078578D01*
X0165084Y0081940D01*
X0167101Y0081940D01*
X0167773Y0081267D01*
X0167773Y0079923D01*
X0167101Y0079250D01*
X0165084Y0079250D01*
X0163786Y0079250D02*
X0162441Y0079250D01*
X0163113Y0079250D02*
X0163113Y0081940D01*
X0163786Y0081940D01*
X0163113Y0083284D02*
X0163113Y0083957D01*
X0162456Y0085746D02*
X0160439Y0085746D01*
X0159767Y0086419D01*
X0159767Y0087763D01*
X0160439Y0088436D01*
X0162456Y0088436D01*
X0162456Y0089780D02*
X0162456Y0085746D01*
X0158469Y0086419D02*
X0158469Y0088436D01*
X0158469Y0086419D02*
X0157796Y0085746D01*
X0155779Y0085746D01*
X0155779Y0085074D02*
X0156452Y0084402D01*
X0157124Y0084402D01*
X0155779Y0085074D02*
X0155779Y0088436D01*
X0150493Y0088436D02*
X0149149Y0088436D01*
X0149821Y0089108D02*
X0149821Y0086419D01*
X0149149Y0085746D01*
X0147835Y0085746D02*
X0147835Y0089780D01*
X0147163Y0088436D02*
X0145818Y0088436D01*
X0145145Y0087763D01*
X0145145Y0085746D01*
X0143847Y0086419D02*
X0143847Y0087763D01*
X0143175Y0088436D01*
X0141830Y0088436D01*
X0141158Y0087763D01*
X0141158Y0087091D01*
X0143847Y0087091D01*
X0143847Y0086419D02*
X0143175Y0085746D01*
X0141830Y0085746D01*
X0145169Y0083957D02*
X0145169Y0083284D01*
X0145169Y0081940D02*
X0145169Y0079250D01*
X0145841Y0079250D02*
X0144496Y0079250D01*
X0143183Y0079250D02*
X0143183Y0081940D01*
X0141166Y0081940D01*
X0140493Y0081267D01*
X0140493Y0079250D01*
X0139195Y0079923D02*
X0138523Y0079250D01*
X0136506Y0079250D01*
X0136506Y0078578D02*
X0136506Y0081940D01*
X0138523Y0081940D01*
X0139195Y0081267D01*
X0139195Y0079923D01*
X0137850Y0077906D02*
X0137178Y0077906D01*
X0136506Y0078578D01*
X0129875Y0079250D02*
X0129875Y0083284D01*
X0131220Y0083284D02*
X0128530Y0083284D01*
X0126560Y0081940D02*
X0125215Y0081940D01*
X0124543Y0081267D01*
X0124543Y0080595D01*
X0127232Y0080595D01*
X0127232Y0079923D02*
X0127232Y0081267D01*
X0126560Y0081940D01*
X0127232Y0079923D02*
X0126560Y0079250D01*
X0125215Y0079250D01*
X0123244Y0079923D02*
X0122572Y0080595D01*
X0120555Y0080595D01*
X0120555Y0081267D02*
X0120555Y0079250D01*
X0122572Y0079250D01*
X0123244Y0079923D01*
X0122572Y0081940D02*
X0121227Y0081940D01*
X0120555Y0081267D01*
X0119257Y0081940D02*
X0118584Y0081940D01*
X0117912Y0081267D01*
X0117240Y0081940D01*
X0116567Y0081267D01*
X0116567Y0079250D01*
X0117912Y0079250D02*
X0117912Y0081267D01*
X0119257Y0081940D02*
X0119257Y0079250D01*
X0145169Y0081940D02*
X0145841Y0081940D01*
X0147147Y0081940D02*
X0147819Y0081940D01*
X0149164Y0080595D01*
X0150462Y0080595D02*
X0153152Y0080595D01*
X0153152Y0079923D02*
X0153152Y0081267D01*
X0152479Y0081940D01*
X0151135Y0081940D01*
X0150462Y0081267D01*
X0150462Y0080595D01*
X0151135Y0079250D02*
X0152479Y0079250D01*
X0153152Y0079923D01*
X0154450Y0080595D02*
X0157139Y0080595D01*
X0157139Y0079923D02*
X0157139Y0081267D01*
X0156467Y0081940D01*
X0155122Y0081940D01*
X0154450Y0081267D01*
X0154450Y0080595D01*
X0155122Y0079250D02*
X0156467Y0079250D01*
X0157139Y0079923D01*
X0158438Y0079250D02*
X0158438Y0081267D01*
X0159110Y0081940D01*
X0161127Y0081940D01*
X0161127Y0079250D01*
X0169071Y0079250D02*
X0169071Y0081267D01*
X0169744Y0081940D01*
X0171761Y0081940D01*
X0171761Y0079250D01*
X0173059Y0079250D02*
X0175749Y0079250D01*
X0175749Y0083284D01*
X0173059Y0083284D01*
X0174404Y0081267D02*
X0175749Y0081267D01*
X0181034Y0081940D02*
X0183051Y0081940D01*
X0183724Y0081267D01*
X0183051Y0080595D01*
X0181707Y0080595D01*
X0181034Y0079923D01*
X0181707Y0079250D01*
X0183724Y0079250D01*
X0185022Y0079250D02*
X0185022Y0081940D01*
X0187712Y0081940D02*
X0187712Y0079923D01*
X0187039Y0079250D01*
X0185022Y0079250D01*
X0189010Y0079250D02*
X0189010Y0081267D01*
X0189682Y0081940D01*
X0190354Y0081267D01*
X0190354Y0079250D01*
X0191699Y0079250D02*
X0191699Y0081940D01*
X0191027Y0081940D01*
X0190354Y0081267D01*
X0192997Y0081267D02*
X0192997Y0079923D01*
X0193670Y0079250D01*
X0195014Y0079250D01*
X0195687Y0079923D01*
X0195687Y0081267D01*
X0195014Y0081940D01*
X0193670Y0081940D01*
X0192997Y0081267D01*
X0196985Y0081940D02*
X0199002Y0081940D01*
X0199674Y0081267D01*
X0199674Y0079923D01*
X0199002Y0079250D01*
X0196985Y0079250D01*
X0196985Y0083284D01*
X0197016Y0085746D02*
X0194999Y0085746D01*
X0194327Y0086419D01*
X0194327Y0089108D01*
X0194999Y0089780D01*
X0197016Y0089780D01*
X0197016Y0085746D01*
X0193028Y0086419D02*
X0193028Y0087763D01*
X0192356Y0088436D01*
X0191011Y0088436D01*
X0190339Y0087763D01*
X0190339Y0087091D01*
X0193028Y0087091D01*
X0193028Y0086419D02*
X0192356Y0085746D01*
X0191011Y0085746D01*
X0189041Y0085746D02*
X0187024Y0085746D01*
X0186351Y0086419D01*
X0187024Y0087091D01*
X0188368Y0087091D01*
X0189041Y0087763D01*
X0188368Y0088436D01*
X0186351Y0088436D01*
X0185053Y0088436D02*
X0184381Y0088436D01*
X0184381Y0085746D01*
X0185053Y0085746D02*
X0183708Y0085746D01*
X0182395Y0086419D02*
X0182395Y0087763D01*
X0181722Y0088436D01*
X0179705Y0088436D01*
X0179705Y0085074D01*
X0180378Y0084402D01*
X0181050Y0084402D01*
X0181722Y0085746D02*
X0179705Y0085746D01*
X0178407Y0085746D02*
X0178407Y0088436D01*
X0176390Y0088436D01*
X0175718Y0087763D01*
X0175718Y0085746D01*
X0174419Y0086419D02*
X0174419Y0087763D01*
X0173747Y0088436D01*
X0172402Y0088436D01*
X0171730Y0087763D01*
X0171730Y0087091D01*
X0174419Y0087091D01*
X0174419Y0086419D02*
X0173747Y0085746D01*
X0172402Y0085746D01*
X0170432Y0086419D02*
X0170432Y0087763D01*
X0169759Y0088436D01*
X0167742Y0088436D01*
X0167742Y0089780D02*
X0167742Y0085746D01*
X0169759Y0085746D01*
X0170432Y0086419D01*
X0181722Y0085746D02*
X0182395Y0086419D01*
X0184381Y0089780D02*
X0184381Y0090453D01*
X0200973Y0081267D02*
X0200973Y0079250D01*
X0202990Y0079250D01*
X0203662Y0079923D01*
X0202990Y0080595D01*
X0200973Y0080595D01*
X0200973Y0081267D02*
X0201645Y0081940D01*
X0202990Y0081940D01*
X0204968Y0081940D02*
X0205640Y0081940D01*
X0206985Y0080595D01*
X0206985Y0079250D02*
X0206985Y0081940D01*
X0208299Y0081940D02*
X0209644Y0081940D01*
X0208971Y0082612D02*
X0208971Y0079923D01*
X0208299Y0079250D01*
X0210942Y0079923D02*
X0211614Y0080595D01*
X0212959Y0080595D01*
X0213631Y0081267D01*
X0212959Y0081940D01*
X0210942Y0081940D01*
X0210942Y0079923D02*
X0211614Y0079250D01*
X0213631Y0079250D01*
X0214930Y0079923D02*
X0214930Y0081267D01*
X0215602Y0081940D01*
X0216947Y0081940D01*
X0217619Y0081267D01*
X0217619Y0079923D01*
X0216947Y0079250D01*
X0215602Y0079250D01*
X0214930Y0079923D01*
X0218917Y0079250D02*
X0218917Y0083284D01*
X0221607Y0083284D02*
X0218917Y0079250D01*
X0221607Y0079250D02*
X0221607Y0083284D01*
X0149164Y0081940D02*
X0149164Y0079250D01*
X0147835Y0087763D02*
X0147163Y0088436D01*
D15*
X0001533Y0101113D02*
X0001533Y0004073D01*
X0001534Y0004073D02*
X0001536Y0003963D01*
X0001542Y0003854D01*
X0001552Y0003745D01*
X0001565Y0003636D01*
X0001583Y0003527D01*
X0001604Y0003420D01*
X0001629Y0003313D01*
X0001658Y0003207D01*
X0001691Y0003103D01*
X0001728Y0002999D01*
X0001768Y0002897D01*
X0001812Y0002796D01*
X0001859Y0002697D01*
X0001910Y0002600D01*
X0001964Y0002505D01*
X0002022Y0002412D01*
X0002083Y0002320D01*
X0002147Y0002231D01*
X0002214Y0002145D01*
X0002285Y0002061D01*
X0002358Y0001979D01*
X0002434Y0001900D01*
X0002513Y0001824D01*
X0002595Y0001751D01*
X0002679Y0001680D01*
X0002765Y0001613D01*
X0002854Y0001549D01*
X0002946Y0001488D01*
X0003039Y0001430D01*
X0003134Y0001376D01*
X0003231Y0001325D01*
X0003330Y0001278D01*
X0003431Y0001234D01*
X0003533Y0001194D01*
X0003637Y0001157D01*
X0003741Y0001124D01*
X0003847Y0001095D01*
X0003954Y0001070D01*
X0004061Y0001049D01*
X0004170Y0001031D01*
X0004279Y0001018D01*
X0004388Y0001008D01*
X0004497Y0001002D01*
X0004607Y0001000D01*
X0068672Y0001000D01*
X0068760Y0001002D01*
X0068848Y0001007D01*
X0068935Y0001017D01*
X0069023Y0001030D01*
X0069109Y0001047D01*
X0069195Y0001067D01*
X0069279Y0001091D01*
X0069363Y0001118D01*
X0069445Y0001150D01*
X0069526Y0001184D01*
X0069606Y0001222D01*
X0069683Y0001263D01*
X0069759Y0001308D01*
X0069833Y0001356D01*
X0069905Y0001407D01*
X0069975Y0001460D01*
X0070042Y0001517D01*
X0070107Y0001577D01*
X0070169Y0001639D01*
X0070229Y0001704D01*
X0070286Y0001771D01*
X0070339Y0001841D01*
X0070390Y0001913D01*
X0070438Y0001987D01*
X0070483Y0002063D01*
X0070524Y0002140D01*
X0070562Y0002220D01*
X0070596Y0002301D01*
X0070628Y0002383D01*
X0070655Y0002467D01*
X0070679Y0002551D01*
X0070699Y0002637D01*
X0070716Y0002723D01*
X0070729Y0002811D01*
X0070739Y0002898D01*
X0070744Y0002986D01*
X0070746Y0003074D01*
X0070746Y0014071D01*
X0070750Y0014389D01*
X0070761Y0014706D01*
X0070781Y0015024D01*
X0070808Y0015340D01*
X0070843Y0015656D01*
X0070885Y0015971D01*
X0070935Y0016285D01*
X0070993Y0016598D01*
X0071058Y0016909D01*
X0071131Y0017218D01*
X0071212Y0017526D01*
X0071299Y0017831D01*
X0071395Y0018134D01*
X0071497Y0018435D01*
X0071607Y0018733D01*
X0071724Y0019029D01*
X0071849Y0019321D01*
X0071980Y0019611D01*
X0072118Y0019897D01*
X0072264Y0020179D01*
X0072416Y0020458D01*
X0072575Y0020734D01*
X0072740Y0021005D01*
X0072912Y0021272D01*
X0073091Y0021535D01*
X0073276Y0021794D01*
X0073467Y0022047D01*
X0073664Y0022297D01*
X0073868Y0022541D01*
X0074077Y0022780D01*
X0074292Y0023014D01*
X0074513Y0023243D01*
X0074739Y0023466D01*
X0074970Y0023684D01*
X0075207Y0023896D01*
X0075449Y0024103D01*
X0075695Y0024303D01*
X0075947Y0024497D01*
X0076203Y0024685D01*
X0076464Y0024867D01*
X0076729Y0025042D01*
X0076998Y0025211D01*
X0077272Y0025373D01*
X0077549Y0025529D01*
X0077830Y0025678D01*
X0078114Y0025820D01*
X0078402Y0025955D01*
X0078693Y0026082D01*
X0078987Y0026203D01*
X0079284Y0026317D01*
X0079583Y0026423D01*
X0079885Y0026522D01*
X0080189Y0026614D01*
X0080496Y0026698D01*
X0080804Y0026774D01*
X0081115Y0026843D01*
X0081426Y0026905D01*
X0081740Y0026959D01*
X0082054Y0027005D01*
X0082370Y0027044D01*
X0082686Y0027075D01*
X0083003Y0027098D01*
X0083320Y0027113D01*
X0083638Y0027121D01*
X0083956Y0027121D01*
X0084274Y0027113D01*
X0084591Y0027098D01*
X0084908Y0027075D01*
X0085224Y0027044D01*
X0085540Y0027005D01*
X0085854Y0026959D01*
X0086168Y0026905D01*
X0086479Y0026843D01*
X0086790Y0026774D01*
X0087098Y0026698D01*
X0087405Y0026614D01*
X0087709Y0026522D01*
X0088011Y0026423D01*
X0088310Y0026317D01*
X0088607Y0026203D01*
X0088901Y0026082D01*
X0089192Y0025955D01*
X0089480Y0025820D01*
X0089764Y0025678D01*
X0090045Y0025529D01*
X0090323Y0025373D01*
X0090596Y0025211D01*
X0090865Y0025042D01*
X0091130Y0024867D01*
X0091391Y0024685D01*
X0091647Y0024497D01*
X0091899Y0024303D01*
X0092145Y0024103D01*
X0092387Y0023896D01*
X0092624Y0023684D01*
X0092855Y0023466D01*
X0093081Y0023243D01*
X0093302Y0023014D01*
X0093517Y0022780D01*
X0093726Y0022541D01*
X0093930Y0022297D01*
X0094127Y0022047D01*
X0094318Y0021794D01*
X0094503Y0021535D01*
X0094682Y0021272D01*
X0094854Y0021005D01*
X0095019Y0020734D01*
X0095178Y0020458D01*
X0095330Y0020179D01*
X0095476Y0019897D01*
X0095614Y0019611D01*
X0095745Y0019321D01*
X0095870Y0019029D01*
X0095987Y0018733D01*
X0096097Y0018435D01*
X0096199Y0018134D01*
X0096295Y0017831D01*
X0096382Y0017526D01*
X0096463Y0017218D01*
X0096536Y0016909D01*
X0096601Y0016598D01*
X0096659Y0016285D01*
X0096709Y0015971D01*
X0096751Y0015656D01*
X0096786Y0015340D01*
X0096813Y0015024D01*
X0096833Y0014706D01*
X0096844Y0014389D01*
X0096848Y0014071D01*
X0096848Y0003799D01*
X0096850Y0003694D01*
X0096856Y0003590D01*
X0096866Y0003486D01*
X0096879Y0003382D01*
X0096897Y0003279D01*
X0096918Y0003176D01*
X0096943Y0003075D01*
X0096972Y0002974D01*
X0097005Y0002875D01*
X0097041Y0002776D01*
X0097082Y0002680D01*
X0097125Y0002585D01*
X0097172Y0002491D01*
X0097223Y0002399D01*
X0097277Y0002310D01*
X0097334Y0002222D01*
X0097395Y0002137D01*
X0097459Y0002054D01*
X0097525Y0001973D01*
X0097595Y0001895D01*
X0097668Y0001820D01*
X0097743Y0001747D01*
X0097821Y0001677D01*
X0097902Y0001611D01*
X0097985Y0001547D01*
X0098070Y0001486D01*
X0098158Y0001429D01*
X0098248Y0001375D01*
X0098339Y0001324D01*
X0098433Y0001277D01*
X0098528Y0001234D01*
X0098624Y0001193D01*
X0098723Y0001157D01*
X0098822Y0001124D01*
X0098923Y0001095D01*
X0099024Y0001070D01*
X0099127Y0001049D01*
X0099230Y0001031D01*
X0099334Y0001018D01*
X0099438Y0001008D01*
X0099542Y0001002D01*
X0099647Y0001000D01*
X0228853Y0001000D01*
X0228958Y0001002D01*
X0229062Y0001008D01*
X0229166Y0001018D01*
X0229270Y0001031D01*
X0229373Y0001049D01*
X0229476Y0001070D01*
X0229577Y0001095D01*
X0229678Y0001124D01*
X0229777Y0001157D01*
X0229876Y0001193D01*
X0229972Y0001234D01*
X0230067Y0001277D01*
X0230161Y0001324D01*
X0230253Y0001375D01*
X0230342Y0001429D01*
X0230430Y0001486D01*
X0230515Y0001547D01*
X0230598Y0001611D01*
X0230679Y0001677D01*
X0230757Y0001747D01*
X0230832Y0001820D01*
X0230905Y0001895D01*
X0230975Y0001973D01*
X0231041Y0002054D01*
X0231105Y0002137D01*
X0231166Y0002222D01*
X0231223Y0002310D01*
X0231277Y0002399D01*
X0231328Y0002491D01*
X0231375Y0002585D01*
X0231418Y0002680D01*
X0231459Y0002776D01*
X0231495Y0002875D01*
X0231528Y0002974D01*
X0231557Y0003075D01*
X0231582Y0003176D01*
X0231603Y0003279D01*
X0231621Y0003382D01*
X0231634Y0003486D01*
X0231644Y0003590D01*
X0231650Y0003694D01*
X0231652Y0003799D01*
X0231652Y0014071D01*
X0231656Y0014389D01*
X0231667Y0014706D01*
X0231687Y0015024D01*
X0231714Y0015340D01*
X0231749Y0015656D01*
X0231791Y0015971D01*
X0231841Y0016285D01*
X0231899Y0016598D01*
X0231964Y0016909D01*
X0232037Y0017218D01*
X0232118Y0017526D01*
X0232205Y0017831D01*
X0232301Y0018134D01*
X0232403Y0018435D01*
X0232513Y0018733D01*
X0232630Y0019029D01*
X0232755Y0019321D01*
X0232886Y0019611D01*
X0233024Y0019897D01*
X0233170Y0020179D01*
X0233322Y0020458D01*
X0233481Y0020734D01*
X0233646Y0021005D01*
X0233818Y0021272D01*
X0233997Y0021535D01*
X0234182Y0021794D01*
X0234373Y0022047D01*
X0234570Y0022297D01*
X0234774Y0022541D01*
X0234983Y0022780D01*
X0235198Y0023014D01*
X0235419Y0023243D01*
X0235645Y0023466D01*
X0235876Y0023684D01*
X0236113Y0023896D01*
X0236355Y0024103D01*
X0236601Y0024303D01*
X0236853Y0024497D01*
X0237109Y0024685D01*
X0237370Y0024867D01*
X0237635Y0025042D01*
X0237904Y0025211D01*
X0238178Y0025373D01*
X0238455Y0025529D01*
X0238736Y0025678D01*
X0239020Y0025820D01*
X0239308Y0025955D01*
X0239599Y0026082D01*
X0239893Y0026203D01*
X0240190Y0026317D01*
X0240489Y0026423D01*
X0240791Y0026522D01*
X0241095Y0026614D01*
X0241402Y0026698D01*
X0241710Y0026774D01*
X0242021Y0026843D01*
X0242332Y0026905D01*
X0242646Y0026959D01*
X0242960Y0027005D01*
X0243276Y0027044D01*
X0243592Y0027075D01*
X0243909Y0027098D01*
X0244226Y0027113D01*
X0244544Y0027121D01*
X0244862Y0027121D01*
X0245180Y0027113D01*
X0245497Y0027098D01*
X0245814Y0027075D01*
X0246130Y0027044D01*
X0246446Y0027005D01*
X0246760Y0026959D01*
X0247074Y0026905D01*
X0247385Y0026843D01*
X0247696Y0026774D01*
X0248004Y0026698D01*
X0248311Y0026614D01*
X0248615Y0026522D01*
X0248917Y0026423D01*
X0249216Y0026317D01*
X0249513Y0026203D01*
X0249807Y0026082D01*
X0250098Y0025955D01*
X0250386Y0025820D01*
X0250670Y0025678D01*
X0250951Y0025529D01*
X0251229Y0025373D01*
X0251502Y0025211D01*
X0251771Y0025042D01*
X0252036Y0024867D01*
X0252297Y0024685D01*
X0252553Y0024497D01*
X0252805Y0024303D01*
X0253051Y0024103D01*
X0253293Y0023896D01*
X0253530Y0023684D01*
X0253761Y0023466D01*
X0253987Y0023243D01*
X0254208Y0023014D01*
X0254423Y0022780D01*
X0254632Y0022541D01*
X0254836Y0022297D01*
X0255033Y0022047D01*
X0255224Y0021794D01*
X0255409Y0021535D01*
X0255588Y0021272D01*
X0255760Y0021005D01*
X0255925Y0020734D01*
X0256084Y0020458D01*
X0256236Y0020179D01*
X0256382Y0019897D01*
X0256520Y0019611D01*
X0256651Y0019321D01*
X0256776Y0019029D01*
X0256893Y0018733D01*
X0257003Y0018435D01*
X0257105Y0018134D01*
X0257201Y0017831D01*
X0257288Y0017526D01*
X0257369Y0017218D01*
X0257442Y0016909D01*
X0257507Y0016598D01*
X0257565Y0016285D01*
X0257615Y0015971D01*
X0257657Y0015656D01*
X0257692Y0015340D01*
X0257719Y0015024D01*
X0257739Y0014706D01*
X0257750Y0014389D01*
X0257754Y0014071D01*
X0257754Y0003074D01*
X0257756Y0002986D01*
X0257761Y0002898D01*
X0257771Y0002811D01*
X0257784Y0002723D01*
X0257801Y0002637D01*
X0257821Y0002551D01*
X0257845Y0002467D01*
X0257872Y0002383D01*
X0257904Y0002301D01*
X0257938Y0002220D01*
X0257976Y0002140D01*
X0258017Y0002063D01*
X0258062Y0001987D01*
X0258110Y0001913D01*
X0258161Y0001841D01*
X0258214Y0001771D01*
X0258271Y0001704D01*
X0258331Y0001639D01*
X0258393Y0001577D01*
X0258458Y0001517D01*
X0258525Y0001460D01*
X0258595Y0001407D01*
X0258667Y0001356D01*
X0258741Y0001308D01*
X0258817Y0001263D01*
X0258894Y0001222D01*
X0258974Y0001184D01*
X0259055Y0001150D01*
X0259137Y0001118D01*
X0259221Y0001091D01*
X0259305Y0001067D01*
X0259391Y0001047D01*
X0259477Y0001030D01*
X0259565Y0001017D01*
X0259652Y0001007D01*
X0259740Y0001002D01*
X0259828Y0001000D01*
X0323893Y0001000D01*
X0324003Y0001002D01*
X0324112Y0001008D01*
X0324221Y0001018D01*
X0324330Y0001031D01*
X0324439Y0001049D01*
X0324546Y0001070D01*
X0324653Y0001095D01*
X0324759Y0001124D01*
X0324863Y0001157D01*
X0324967Y0001194D01*
X0325069Y0001234D01*
X0325170Y0001278D01*
X0325269Y0001325D01*
X0325366Y0001376D01*
X0325461Y0001430D01*
X0325554Y0001488D01*
X0325646Y0001549D01*
X0325735Y0001613D01*
X0325821Y0001680D01*
X0325905Y0001751D01*
X0325987Y0001824D01*
X0326066Y0001900D01*
X0326142Y0001979D01*
X0326215Y0002061D01*
X0326286Y0002145D01*
X0326353Y0002231D01*
X0326417Y0002320D01*
X0326478Y0002412D01*
X0326536Y0002505D01*
X0326590Y0002600D01*
X0326641Y0002697D01*
X0326688Y0002796D01*
X0326732Y0002897D01*
X0326772Y0002999D01*
X0326809Y0003103D01*
X0326842Y0003207D01*
X0326871Y0003313D01*
X0326896Y0003420D01*
X0326917Y0003527D01*
X0326935Y0003636D01*
X0326948Y0003745D01*
X0326958Y0003854D01*
X0326964Y0003963D01*
X0326966Y0004073D01*
X0326967Y0004073D02*
X0326967Y0166890D01*
X0326965Y0166983D01*
X0326959Y0167075D01*
X0326950Y0167167D01*
X0326936Y0167259D01*
X0326919Y0167350D01*
X0326898Y0167440D01*
X0326874Y0167529D01*
X0326846Y0167617D01*
X0326814Y0167704D01*
X0326778Y0167790D01*
X0326739Y0167874D01*
X0326697Y0167956D01*
X0326651Y0168037D01*
X0326602Y0168115D01*
X0326550Y0168192D01*
X0326495Y0168266D01*
X0326436Y0168338D01*
X0326375Y0168407D01*
X0326311Y0168474D01*
X0326244Y0168538D01*
X0326175Y0168599D01*
X0326103Y0168658D01*
X0326029Y0168713D01*
X0325952Y0168765D01*
X0325874Y0168814D01*
X0325793Y0168860D01*
X0325711Y0168902D01*
X0325627Y0168941D01*
X0325541Y0168977D01*
X0325454Y0169009D01*
X0325366Y0169037D01*
X0325277Y0169061D01*
X0325187Y0169082D01*
X0325096Y0169099D01*
X0325004Y0169113D01*
X0324912Y0169122D01*
X0324820Y0169128D01*
X0324727Y0169130D01*
X0310720Y0169130D01*
X0310642Y0169132D01*
X0310564Y0169138D01*
X0310487Y0169147D01*
X0310410Y0169161D01*
X0310334Y0169178D01*
X0310259Y0169198D01*
X0310185Y0169223D01*
X0310112Y0169251D01*
X0310041Y0169282D01*
X0309971Y0169318D01*
X0309904Y0169356D01*
X0309838Y0169398D01*
X0309774Y0169443D01*
X0309713Y0169490D01*
X0309654Y0169541D01*
X0309597Y0169595D01*
X0309543Y0169652D01*
X0309492Y0169711D01*
X0309445Y0169772D01*
X0309400Y0169836D01*
X0309358Y0169902D01*
X0309320Y0169969D01*
X0309284Y0170039D01*
X0309253Y0170110D01*
X0309225Y0170183D01*
X0309200Y0170257D01*
X0309180Y0170332D01*
X0309163Y0170408D01*
X0309149Y0170485D01*
X0309140Y0170562D01*
X0309134Y0170640D01*
X0309132Y0170718D01*
X0309132Y0202938D01*
X0309131Y0202938D02*
X0309133Y0203018D01*
X0309139Y0203097D01*
X0309149Y0203176D01*
X0309162Y0203255D01*
X0309180Y0203333D01*
X0309201Y0203410D01*
X0309226Y0203485D01*
X0309255Y0203560D01*
X0309287Y0203633D01*
X0309323Y0203704D01*
X0309362Y0203773D01*
X0309405Y0203841D01*
X0309451Y0203906D01*
X0309500Y0203969D01*
X0309552Y0204029D01*
X0309607Y0204087D01*
X0309665Y0204142D01*
X0309725Y0204194D01*
X0309788Y0204243D01*
X0309853Y0204289D01*
X0309921Y0204332D01*
X0309990Y0204371D01*
X0310061Y0204407D01*
X0310134Y0204439D01*
X0310209Y0204468D01*
X0310284Y0204493D01*
X0310361Y0204514D01*
X0310439Y0204532D01*
X0310518Y0204545D01*
X0310597Y0204555D01*
X0310676Y0204561D01*
X0310756Y0204563D01*
X0324778Y0204563D01*
X0324871Y0204565D01*
X0324964Y0204571D01*
X0325056Y0204581D01*
X0325148Y0204594D01*
X0325239Y0204612D01*
X0325329Y0204634D01*
X0325419Y0204659D01*
X0325507Y0204688D01*
X0325594Y0204721D01*
X0325679Y0204757D01*
X0325763Y0204797D01*
X0325845Y0204841D01*
X0325925Y0204888D01*
X0326003Y0204938D01*
X0326079Y0204992D01*
X0326153Y0205049D01*
X0326224Y0205109D01*
X0326292Y0205171D01*
X0326358Y0205237D01*
X0326420Y0205305D01*
X0326480Y0205376D01*
X0326537Y0205450D01*
X0326591Y0205526D01*
X0326641Y0205604D01*
X0326688Y0205684D01*
X0326732Y0205766D01*
X0326772Y0205850D01*
X0326808Y0205935D01*
X0326841Y0206022D01*
X0326870Y0206110D01*
X0326895Y0206200D01*
X0326917Y0206290D01*
X0326935Y0206381D01*
X0326948Y0206473D01*
X0326958Y0206565D01*
X0326964Y0206658D01*
X0326966Y0206751D01*
X0326967Y0206751D02*
X0326967Y0220801D01*
X0326966Y0220801D02*
X0326964Y0220911D01*
X0326958Y0221020D01*
X0326948Y0221129D01*
X0326935Y0221238D01*
X0326917Y0221347D01*
X0326896Y0221454D01*
X0326871Y0221561D01*
X0326842Y0221667D01*
X0326809Y0221771D01*
X0326772Y0221875D01*
X0326732Y0221977D01*
X0326688Y0222078D01*
X0326641Y0222177D01*
X0326590Y0222274D01*
X0326536Y0222369D01*
X0326478Y0222462D01*
X0326417Y0222554D01*
X0326353Y0222643D01*
X0326286Y0222729D01*
X0326215Y0222813D01*
X0326142Y0222895D01*
X0326066Y0222974D01*
X0325987Y0223050D01*
X0325905Y0223123D01*
X0325821Y0223194D01*
X0325735Y0223261D01*
X0325646Y0223325D01*
X0325554Y0223386D01*
X0325461Y0223444D01*
X0325366Y0223498D01*
X0325269Y0223549D01*
X0325170Y0223596D01*
X0325069Y0223640D01*
X0324967Y0223680D01*
X0324863Y0223717D01*
X0324759Y0223750D01*
X0324653Y0223779D01*
X0324546Y0223804D01*
X0324439Y0223825D01*
X0324330Y0223843D01*
X0324221Y0223856D01*
X0324112Y0223866D01*
X0324003Y0223872D01*
X0323893Y0223874D01*
X0259828Y0223874D01*
X0259740Y0223872D01*
X0259652Y0223867D01*
X0259565Y0223857D01*
X0259477Y0223844D01*
X0259391Y0223827D01*
X0259305Y0223807D01*
X0259221Y0223783D01*
X0259137Y0223756D01*
X0259055Y0223724D01*
X0258974Y0223690D01*
X0258894Y0223652D01*
X0258817Y0223611D01*
X0258741Y0223566D01*
X0258667Y0223518D01*
X0258595Y0223467D01*
X0258525Y0223414D01*
X0258458Y0223357D01*
X0258393Y0223297D01*
X0258331Y0223235D01*
X0258271Y0223170D01*
X0258214Y0223103D01*
X0258161Y0223033D01*
X0258110Y0222961D01*
X0258062Y0222887D01*
X0258017Y0222811D01*
X0257976Y0222734D01*
X0257938Y0222654D01*
X0257904Y0222573D01*
X0257872Y0222491D01*
X0257845Y0222407D01*
X0257821Y0222323D01*
X0257801Y0222237D01*
X0257784Y0222151D01*
X0257771Y0222063D01*
X0257761Y0221976D01*
X0257756Y0221888D01*
X0257754Y0221800D01*
X0257754Y0199917D01*
X0257752Y0199825D01*
X0257746Y0199733D01*
X0257736Y0199642D01*
X0257723Y0199551D01*
X0257705Y0199461D01*
X0257684Y0199371D01*
X0257659Y0199283D01*
X0257630Y0199196D01*
X0257598Y0199110D01*
X0257562Y0199025D01*
X0257522Y0198942D01*
X0257479Y0198861D01*
X0257433Y0198782D01*
X0257383Y0198705D01*
X0257330Y0198630D01*
X0257273Y0198557D01*
X0257214Y0198487D01*
X0257152Y0198419D01*
X0257087Y0198354D01*
X0257019Y0198292D01*
X0256949Y0198233D01*
X0256876Y0198176D01*
X0256801Y0198123D01*
X0256724Y0198073D01*
X0256645Y0198027D01*
X0256564Y0197984D01*
X0256481Y0197944D01*
X0256396Y0197908D01*
X0256310Y0197876D01*
X0256223Y0197847D01*
X0256135Y0197822D01*
X0256045Y0197801D01*
X0255955Y0197783D01*
X0255864Y0197770D01*
X0255773Y0197760D01*
X0255681Y0197754D01*
X0255589Y0197752D01*
X0255589Y0103055D01*
X0255588Y0103055D02*
X0255586Y0102974D01*
X0255580Y0102893D01*
X0255571Y0102812D01*
X0255558Y0102732D01*
X0255541Y0102652D01*
X0255521Y0102574D01*
X0255497Y0102496D01*
X0255469Y0102420D01*
X0255438Y0102345D01*
X0255404Y0102271D01*
X0255366Y0102199D01*
X0255325Y0102129D01*
X0255280Y0102061D01*
X0255233Y0101995D01*
X0255182Y0101931D01*
X0255129Y0101870D01*
X0255073Y0101811D01*
X0255014Y0101755D01*
X0254953Y0101702D01*
X0254889Y0101651D01*
X0254823Y0101604D01*
X0254755Y0101559D01*
X0254685Y0101518D01*
X0254613Y0101480D01*
X0254539Y0101446D01*
X0254464Y0101415D01*
X0254388Y0101387D01*
X0254310Y0101363D01*
X0254232Y0101343D01*
X0254152Y0101326D01*
X0254072Y0101313D01*
X0253991Y0101304D01*
X0253910Y0101298D01*
X0253829Y0101296D01*
X0253829Y0101295D02*
X0074671Y0101295D01*
X0074671Y0101296D02*
X0074590Y0101298D01*
X0074509Y0101304D01*
X0074428Y0101313D01*
X0074348Y0101326D01*
X0074268Y0101343D01*
X0074190Y0101363D01*
X0074112Y0101387D01*
X0074036Y0101415D01*
X0073961Y0101446D01*
X0073887Y0101480D01*
X0073815Y0101518D01*
X0073745Y0101559D01*
X0073677Y0101604D01*
X0073611Y0101651D01*
X0073547Y0101702D01*
X0073486Y0101755D01*
X0073427Y0101811D01*
X0073371Y0101870D01*
X0073318Y0101931D01*
X0073267Y0101995D01*
X0073220Y0102061D01*
X0073175Y0102129D01*
X0073134Y0102199D01*
X0073096Y0102271D01*
X0073062Y0102345D01*
X0073031Y0102420D01*
X0073003Y0102496D01*
X0072979Y0102574D01*
X0072959Y0102652D01*
X0072942Y0102732D01*
X0072929Y0102812D01*
X0072920Y0102893D01*
X0072914Y0102974D01*
X0072912Y0103055D01*
X0072911Y0103055D02*
X0072911Y0197752D01*
X0072819Y0197754D01*
X0072727Y0197760D01*
X0072636Y0197770D01*
X0072545Y0197783D01*
X0072455Y0197801D01*
X0072365Y0197822D01*
X0072277Y0197847D01*
X0072190Y0197876D01*
X0072104Y0197908D01*
X0072019Y0197944D01*
X0071936Y0197984D01*
X0071855Y0198027D01*
X0071776Y0198073D01*
X0071699Y0198123D01*
X0071624Y0198176D01*
X0071551Y0198233D01*
X0071481Y0198292D01*
X0071413Y0198354D01*
X0071348Y0198419D01*
X0071286Y0198487D01*
X0071227Y0198557D01*
X0071170Y0198630D01*
X0071117Y0198705D01*
X0071067Y0198782D01*
X0071021Y0198861D01*
X0070978Y0198942D01*
X0070938Y0199025D01*
X0070902Y0199110D01*
X0070870Y0199196D01*
X0070841Y0199283D01*
X0070816Y0199371D01*
X0070795Y0199461D01*
X0070777Y0199551D01*
X0070764Y0199642D01*
X0070754Y0199733D01*
X0070748Y0199825D01*
X0070746Y0199917D01*
X0070746Y0221800D01*
X0070744Y0221888D01*
X0070739Y0221976D01*
X0070729Y0222063D01*
X0070716Y0222151D01*
X0070699Y0222237D01*
X0070679Y0222323D01*
X0070655Y0222407D01*
X0070628Y0222491D01*
X0070596Y0222573D01*
X0070562Y0222654D01*
X0070524Y0222734D01*
X0070483Y0222811D01*
X0070438Y0222887D01*
X0070390Y0222961D01*
X0070339Y0223033D01*
X0070286Y0223103D01*
X0070229Y0223170D01*
X0070169Y0223235D01*
X0070107Y0223297D01*
X0070042Y0223357D01*
X0069975Y0223414D01*
X0069905Y0223467D01*
X0069833Y0223518D01*
X0069759Y0223566D01*
X0069683Y0223611D01*
X0069606Y0223652D01*
X0069526Y0223690D01*
X0069445Y0223724D01*
X0069363Y0223756D01*
X0069279Y0223783D01*
X0069195Y0223807D01*
X0069109Y0223827D01*
X0069023Y0223844D01*
X0068935Y0223857D01*
X0068848Y0223867D01*
X0068760Y0223872D01*
X0068672Y0223874D01*
X0004607Y0223874D01*
X0004497Y0223872D01*
X0004388Y0223866D01*
X0004279Y0223856D01*
X0004170Y0223843D01*
X0004061Y0223825D01*
X0003954Y0223804D01*
X0003847Y0223779D01*
X0003741Y0223750D01*
X0003637Y0223717D01*
X0003533Y0223680D01*
X0003431Y0223640D01*
X0003330Y0223596D01*
X0003231Y0223549D01*
X0003134Y0223498D01*
X0003039Y0223444D01*
X0002946Y0223386D01*
X0002854Y0223325D01*
X0002765Y0223261D01*
X0002679Y0223194D01*
X0002595Y0223123D01*
X0002513Y0223050D01*
X0002434Y0222974D01*
X0002358Y0222895D01*
X0002285Y0222813D01*
X0002214Y0222729D01*
X0002147Y0222643D01*
X0002083Y0222554D01*
X0002022Y0222462D01*
X0001964Y0222369D01*
X0001910Y0222274D01*
X0001859Y0222177D01*
X0001812Y0222078D01*
X0001768Y0221977D01*
X0001728Y0221875D01*
X0001691Y0221771D01*
X0001658Y0221667D01*
X0001629Y0221561D01*
X0001604Y0221454D01*
X0001583Y0221347D01*
X0001565Y0221238D01*
X0001552Y0221129D01*
X0001542Y0221020D01*
X0001536Y0220911D01*
X0001534Y0220801D01*
X0001533Y0220801D02*
X0001533Y0123761D01*
X0001535Y0123646D01*
X0001541Y0123531D01*
X0001550Y0123416D01*
X0001564Y0123301D01*
X0001581Y0123187D01*
X0001602Y0123074D01*
X0001627Y0122961D01*
X0001656Y0122850D01*
X0001688Y0122739D01*
X0001724Y0122629D01*
X0001764Y0122521D01*
X0001807Y0122414D01*
X0001854Y0122309D01*
X0001904Y0122205D01*
X0001958Y0122103D01*
X0002015Y0122003D01*
X0002075Y0121905D01*
X0002139Y0121808D01*
X0002206Y0121715D01*
X0002275Y0121623D01*
X0002348Y0121534D01*
X0002424Y0121447D01*
X0002503Y0121363D01*
X0002585Y0121281D01*
X0002669Y0121202D01*
X0002756Y0121126D01*
X0002845Y0121053D01*
X0002937Y0120984D01*
X0003030Y0120917D01*
X0003127Y0120853D01*
X0003225Y0120793D01*
X0003325Y0120736D01*
X0003427Y0120682D01*
X0003531Y0120632D01*
X0003636Y0120585D01*
X0003743Y0120542D01*
X0003851Y0120502D01*
X0003961Y0120466D01*
X0004072Y0120434D01*
X0004183Y0120405D01*
X0004296Y0120380D01*
X0004409Y0120359D01*
X0004523Y0120342D01*
X0004638Y0120328D01*
X0004753Y0120319D01*
X0004868Y0120313D01*
X0004983Y0120311D01*
X0015897Y0120311D01*
X0016007Y0120313D01*
X0016117Y0120319D01*
X0016226Y0120329D01*
X0016335Y0120342D01*
X0016443Y0120360D01*
X0016551Y0120381D01*
X0016658Y0120407D01*
X0016764Y0120436D01*
X0016869Y0120468D01*
X0016972Y0120505D01*
X0017075Y0120545D01*
X0017175Y0120589D01*
X0017274Y0120636D01*
X0017372Y0120687D01*
X0017467Y0120742D01*
X0017561Y0120799D01*
X0017652Y0120860D01*
X0017741Y0120925D01*
X0017828Y0120992D01*
X0017912Y0121063D01*
X0017994Y0121136D01*
X0018073Y0121212D01*
X0018149Y0121291D01*
X0018222Y0121373D01*
X0018293Y0121457D01*
X0018360Y0121544D01*
X0018425Y0121633D01*
X0018486Y0121724D01*
X0018543Y0121818D01*
X0018598Y0121913D01*
X0018649Y0122011D01*
X0018696Y0122110D01*
X0018740Y0122210D01*
X0018780Y0122313D01*
X0018817Y0122416D01*
X0018849Y0122521D01*
X0018878Y0122627D01*
X0018904Y0122734D01*
X0018925Y0122842D01*
X0018943Y0122950D01*
X0018956Y0123059D01*
X0018966Y0123168D01*
X0018972Y0123278D01*
X0018974Y0123388D01*
X0018974Y0151807D01*
X0018971Y0151914D01*
X0018972Y0152020D01*
X0018976Y0152127D01*
X0018985Y0152234D01*
X0018997Y0152340D01*
X0019013Y0152445D01*
X0019032Y0152550D01*
X0019056Y0152655D01*
X0019083Y0152758D01*
X0019113Y0152860D01*
X0019148Y0152961D01*
X0019186Y0153061D01*
X0019227Y0153160D01*
X0019272Y0153256D01*
X0019321Y0153352D01*
X0019372Y0153445D01*
X0019428Y0153537D01*
X0019486Y0153626D01*
X0019547Y0153713D01*
X0019612Y0153798D01*
X0019679Y0153881D01*
X0019750Y0153962D01*
X0019823Y0154039D01*
X0019899Y0154114D01*
X0019978Y0154187D01*
X0020059Y0154256D01*
X0020143Y0154322D01*
X0020228Y0154386D01*
X0020317Y0154446D01*
X0020407Y0154503D01*
X0020499Y0154557D01*
X0020593Y0154608D01*
X0020689Y0154655D01*
X0020786Y0154699D01*
X0020885Y0154739D01*
X0020986Y0154776D01*
X0021087Y0154809D01*
X0021190Y0154838D01*
X0021293Y0154864D01*
X0021398Y0154886D01*
X0021503Y0154904D01*
X0021609Y0154919D01*
X0021715Y0154930D01*
X0021822Y0154937D01*
X0021935Y0154941D01*
X0022047Y0154940D01*
X0022160Y0154936D01*
X0022272Y0154928D01*
X0022384Y0154917D01*
X0022495Y0154901D01*
X0022606Y0154882D01*
X0022716Y0154858D01*
X0022825Y0154832D01*
X0022934Y0154801D01*
X0023041Y0154767D01*
X0023147Y0154729D01*
X0023251Y0154687D01*
X0023354Y0154642D01*
X0023456Y0154594D01*
X0023556Y0154542D01*
X0023653Y0154486D01*
X0023749Y0154427D01*
X0023843Y0154366D01*
X0023935Y0154300D01*
X0024025Y0154232D01*
X0024112Y0154161D01*
X0024196Y0154087D01*
X0024278Y0154010D01*
X0024358Y0153930D01*
X0024434Y0153848D01*
X0024508Y0153763D01*
X0024579Y0153675D01*
X0024647Y0153585D01*
X0024711Y0153493D01*
X0024773Y0153399D01*
X0024831Y0153303D01*
X0024886Y0153205D01*
X0024938Y0153105D01*
X0024986Y0153003D01*
X0025030Y0152900D01*
X0025071Y0152795D01*
X0025109Y0152689D01*
X0025142Y0152581D01*
X0025173Y0152473D01*
X0025199Y0152364D01*
X0025222Y0152253D01*
X0025240Y0152143D01*
X0025255Y0152031D01*
X0025267Y0151919D01*
X0025274Y0151807D01*
X0025274Y0073067D01*
X0025267Y0072955D01*
X0025255Y0072843D01*
X0025240Y0072731D01*
X0025222Y0072621D01*
X0025199Y0072510D01*
X0025173Y0072401D01*
X0025142Y0072293D01*
X0025109Y0072185D01*
X0025071Y0072079D01*
X0025030Y0071974D01*
X0024986Y0071871D01*
X0024938Y0071769D01*
X0024886Y0071669D01*
X0024831Y0071571D01*
X0024773Y0071475D01*
X0024711Y0071381D01*
X0024647Y0071289D01*
X0024579Y0071199D01*
X0024508Y0071111D01*
X0024434Y0071026D01*
X0024358Y0070944D01*
X0024278Y0070864D01*
X0024196Y0070787D01*
X0024112Y0070713D01*
X0024025Y0070642D01*
X0023935Y0070574D01*
X0023843Y0070508D01*
X0023749Y0070447D01*
X0023653Y0070388D01*
X0023556Y0070332D01*
X0023456Y0070280D01*
X0023354Y0070232D01*
X0023251Y0070187D01*
X0023147Y0070145D01*
X0023041Y0070107D01*
X0022934Y0070073D01*
X0022825Y0070042D01*
X0022716Y0070016D01*
X0022606Y0069992D01*
X0022495Y0069973D01*
X0022384Y0069957D01*
X0022272Y0069946D01*
X0022160Y0069938D01*
X0022047Y0069934D01*
X0021935Y0069933D01*
X0021822Y0069937D01*
X0021715Y0069944D01*
X0021609Y0069955D01*
X0021503Y0069970D01*
X0021398Y0069988D01*
X0021293Y0070010D01*
X0021190Y0070036D01*
X0021087Y0070065D01*
X0020986Y0070098D01*
X0020885Y0070135D01*
X0020786Y0070175D01*
X0020689Y0070219D01*
X0020593Y0070266D01*
X0020499Y0070317D01*
X0020407Y0070371D01*
X0020317Y0070428D01*
X0020228Y0070488D01*
X0020143Y0070552D01*
X0020059Y0070618D01*
X0019978Y0070687D01*
X0019899Y0070760D01*
X0019823Y0070835D01*
X0019750Y0070912D01*
X0019679Y0070993D01*
X0019612Y0071076D01*
X0019547Y0071161D01*
X0019486Y0071248D01*
X0019428Y0071337D01*
X0019372Y0071429D01*
X0019321Y0071522D01*
X0019272Y0071618D01*
X0019227Y0071714D01*
X0019186Y0071813D01*
X0019148Y0071913D01*
X0019113Y0072014D01*
X0019083Y0072116D01*
X0019056Y0072219D01*
X0019032Y0072324D01*
X0019013Y0072429D01*
X0018997Y0072534D01*
X0018985Y0072640D01*
X0018976Y0072747D01*
X0018972Y0072854D01*
X0018971Y0072960D01*
X0018974Y0073067D01*
X0018974Y0101486D01*
X0018972Y0101596D01*
X0018966Y0101706D01*
X0018956Y0101815D01*
X0018943Y0101924D01*
X0018925Y0102032D01*
X0018904Y0102140D01*
X0018878Y0102247D01*
X0018849Y0102353D01*
X0018817Y0102458D01*
X0018780Y0102561D01*
X0018740Y0102664D01*
X0018696Y0102764D01*
X0018649Y0102863D01*
X0018598Y0102961D01*
X0018543Y0103056D01*
X0018486Y0103150D01*
X0018425Y0103241D01*
X0018360Y0103330D01*
X0018293Y0103417D01*
X0018222Y0103501D01*
X0018149Y0103583D01*
X0018073Y0103662D01*
X0017994Y0103738D01*
X0017912Y0103811D01*
X0017828Y0103882D01*
X0017741Y0103949D01*
X0017652Y0104014D01*
X0017561Y0104075D01*
X0017467Y0104132D01*
X0017372Y0104187D01*
X0017274Y0104238D01*
X0017175Y0104285D01*
X0017075Y0104329D01*
X0016972Y0104369D01*
X0016869Y0104406D01*
X0016764Y0104438D01*
X0016658Y0104467D01*
X0016551Y0104493D01*
X0016443Y0104514D01*
X0016335Y0104532D01*
X0016226Y0104545D01*
X0016117Y0104555D01*
X0016007Y0104561D01*
X0015897Y0104563D01*
X0004983Y0104563D01*
X0004868Y0104561D01*
X0004753Y0104555D01*
X0004638Y0104546D01*
X0004523Y0104532D01*
X0004409Y0104515D01*
X0004296Y0104494D01*
X0004183Y0104469D01*
X0004072Y0104440D01*
X0003961Y0104408D01*
X0003851Y0104372D01*
X0003743Y0104332D01*
X0003636Y0104289D01*
X0003531Y0104242D01*
X0003427Y0104192D01*
X0003325Y0104138D01*
X0003225Y0104081D01*
X0003127Y0104021D01*
X0003030Y0103957D01*
X0002937Y0103890D01*
X0002845Y0103821D01*
X0002756Y0103748D01*
X0002669Y0103672D01*
X0002585Y0103593D01*
X0002503Y0103511D01*
X0002424Y0103427D01*
X0002348Y0103340D01*
X0002275Y0103251D01*
X0002206Y0103159D01*
X0002139Y0103066D01*
X0002075Y0102969D01*
X0002015Y0102871D01*
X0001958Y0102771D01*
X0001904Y0102669D01*
X0001854Y0102565D01*
X0001807Y0102460D01*
X0001764Y0102353D01*
X0001724Y0102245D01*
X0001688Y0102135D01*
X0001656Y0102024D01*
X0001627Y0101913D01*
X0001602Y0101800D01*
X0001581Y0101687D01*
X0001564Y0101573D01*
X0001550Y0101458D01*
X0001541Y0101343D01*
X0001535Y0101228D01*
X0001533Y0101113D01*
X0051652Y0057319D02*
X0051654Y0057477D01*
X0051660Y0057635D01*
X0051670Y0057793D01*
X0051684Y0057951D01*
X0051702Y0058108D01*
X0051723Y0058265D01*
X0051749Y0058421D01*
X0051779Y0058577D01*
X0051812Y0058732D01*
X0051850Y0058885D01*
X0051891Y0059038D01*
X0051936Y0059190D01*
X0051985Y0059341D01*
X0052038Y0059490D01*
X0052094Y0059638D01*
X0052154Y0059784D01*
X0052218Y0059929D01*
X0052286Y0060072D01*
X0052357Y0060214D01*
X0052431Y0060354D01*
X0052509Y0060491D01*
X0052591Y0060627D01*
X0052675Y0060761D01*
X0052764Y0060892D01*
X0052855Y0061021D01*
X0052950Y0061148D01*
X0053047Y0061273D01*
X0053148Y0061395D01*
X0053252Y0061514D01*
X0053359Y0061631D01*
X0053469Y0061745D01*
X0053582Y0061856D01*
X0053697Y0061965D01*
X0053815Y0062070D01*
X0053936Y0062172D01*
X0054059Y0062272D01*
X0054185Y0062368D01*
X0054313Y0062461D01*
X0054443Y0062551D01*
X0054576Y0062637D01*
X0054711Y0062721D01*
X0054847Y0062800D01*
X0054986Y0062877D01*
X0055127Y0062949D01*
X0055269Y0063019D01*
X0055413Y0063084D01*
X0055559Y0063146D01*
X0055706Y0063204D01*
X0055855Y0063259D01*
X0056005Y0063310D01*
X0056156Y0063357D01*
X0056308Y0063400D01*
X0056461Y0063439D01*
X0056616Y0063475D01*
X0056771Y0063506D01*
X0056927Y0063534D01*
X0057083Y0063558D01*
X0057240Y0063578D01*
X0057398Y0063594D01*
X0057555Y0063606D01*
X0057714Y0063614D01*
X0057872Y0063618D01*
X0058030Y0063618D01*
X0058188Y0063614D01*
X0058347Y0063606D01*
X0058504Y0063594D01*
X0058662Y0063578D01*
X0058819Y0063558D01*
X0058975Y0063534D01*
X0059131Y0063506D01*
X0059286Y0063475D01*
X0059441Y0063439D01*
X0059594Y0063400D01*
X0059746Y0063357D01*
X0059897Y0063310D01*
X0060047Y0063259D01*
X0060196Y0063204D01*
X0060343Y0063146D01*
X0060489Y0063084D01*
X0060633Y0063019D01*
X0060775Y0062949D01*
X0060916Y0062877D01*
X0061055Y0062800D01*
X0061191Y0062721D01*
X0061326Y0062637D01*
X0061459Y0062551D01*
X0061589Y0062461D01*
X0061717Y0062368D01*
X0061843Y0062272D01*
X0061966Y0062172D01*
X0062087Y0062070D01*
X0062205Y0061965D01*
X0062320Y0061856D01*
X0062433Y0061745D01*
X0062543Y0061631D01*
X0062650Y0061514D01*
X0062754Y0061395D01*
X0062855Y0061273D01*
X0062952Y0061148D01*
X0063047Y0061021D01*
X0063138Y0060892D01*
X0063227Y0060761D01*
X0063311Y0060627D01*
X0063393Y0060491D01*
X0063471Y0060354D01*
X0063545Y0060214D01*
X0063616Y0060072D01*
X0063684Y0059929D01*
X0063748Y0059784D01*
X0063808Y0059638D01*
X0063864Y0059490D01*
X0063917Y0059341D01*
X0063966Y0059190D01*
X0064011Y0059038D01*
X0064052Y0058885D01*
X0064090Y0058732D01*
X0064123Y0058577D01*
X0064153Y0058421D01*
X0064179Y0058265D01*
X0064200Y0058108D01*
X0064218Y0057951D01*
X0064232Y0057793D01*
X0064242Y0057635D01*
X0064248Y0057477D01*
X0064250Y0057319D01*
X0064248Y0057161D01*
X0064242Y0057003D01*
X0064232Y0056845D01*
X0064218Y0056687D01*
X0064200Y0056530D01*
X0064179Y0056373D01*
X0064153Y0056217D01*
X0064123Y0056061D01*
X0064090Y0055906D01*
X0064052Y0055753D01*
X0064011Y0055600D01*
X0063966Y0055448D01*
X0063917Y0055297D01*
X0063864Y0055148D01*
X0063808Y0055000D01*
X0063748Y0054854D01*
X0063684Y0054709D01*
X0063616Y0054566D01*
X0063545Y0054424D01*
X0063471Y0054284D01*
X0063393Y0054147D01*
X0063311Y0054011D01*
X0063227Y0053877D01*
X0063138Y0053746D01*
X0063047Y0053617D01*
X0062952Y0053490D01*
X0062855Y0053365D01*
X0062754Y0053243D01*
X0062650Y0053124D01*
X0062543Y0053007D01*
X0062433Y0052893D01*
X0062320Y0052782D01*
X0062205Y0052673D01*
X0062087Y0052568D01*
X0061966Y0052466D01*
X0061843Y0052366D01*
X0061717Y0052270D01*
X0061589Y0052177D01*
X0061459Y0052087D01*
X0061326Y0052001D01*
X0061191Y0051917D01*
X0061055Y0051838D01*
X0060916Y0051761D01*
X0060775Y0051689D01*
X0060633Y0051619D01*
X0060489Y0051554D01*
X0060343Y0051492D01*
X0060196Y0051434D01*
X0060047Y0051379D01*
X0059897Y0051328D01*
X0059746Y0051281D01*
X0059594Y0051238D01*
X0059441Y0051199D01*
X0059286Y0051163D01*
X0059131Y0051132D01*
X0058975Y0051104D01*
X0058819Y0051080D01*
X0058662Y0051060D01*
X0058504Y0051044D01*
X0058347Y0051032D01*
X0058188Y0051024D01*
X0058030Y0051020D01*
X0057872Y0051020D01*
X0057714Y0051024D01*
X0057555Y0051032D01*
X0057398Y0051044D01*
X0057240Y0051060D01*
X0057083Y0051080D01*
X0056927Y0051104D01*
X0056771Y0051132D01*
X0056616Y0051163D01*
X0056461Y0051199D01*
X0056308Y0051238D01*
X0056156Y0051281D01*
X0056005Y0051328D01*
X0055855Y0051379D01*
X0055706Y0051434D01*
X0055559Y0051492D01*
X0055413Y0051554D01*
X0055269Y0051619D01*
X0055127Y0051689D01*
X0054986Y0051761D01*
X0054847Y0051838D01*
X0054711Y0051917D01*
X0054576Y0052001D01*
X0054443Y0052087D01*
X0054313Y0052177D01*
X0054185Y0052270D01*
X0054059Y0052366D01*
X0053936Y0052466D01*
X0053815Y0052568D01*
X0053697Y0052673D01*
X0053582Y0052782D01*
X0053469Y0052893D01*
X0053359Y0053007D01*
X0053252Y0053124D01*
X0053148Y0053243D01*
X0053047Y0053365D01*
X0052950Y0053490D01*
X0052855Y0053617D01*
X0052764Y0053746D01*
X0052675Y0053877D01*
X0052591Y0054011D01*
X0052509Y0054147D01*
X0052431Y0054284D01*
X0052357Y0054424D01*
X0052286Y0054566D01*
X0052218Y0054709D01*
X0052154Y0054854D01*
X0052094Y0055000D01*
X0052038Y0055148D01*
X0051985Y0055297D01*
X0051936Y0055448D01*
X0051891Y0055600D01*
X0051850Y0055753D01*
X0051812Y0055906D01*
X0051779Y0056061D01*
X0051749Y0056217D01*
X0051723Y0056373D01*
X0051702Y0056530D01*
X0051684Y0056687D01*
X0051670Y0056845D01*
X0051660Y0057003D01*
X0051654Y0057161D01*
X0051652Y0057319D01*
X0051652Y0167555D02*
X0051654Y0167713D01*
X0051660Y0167871D01*
X0051670Y0168029D01*
X0051684Y0168187D01*
X0051702Y0168344D01*
X0051723Y0168501D01*
X0051749Y0168657D01*
X0051779Y0168813D01*
X0051812Y0168968D01*
X0051850Y0169121D01*
X0051891Y0169274D01*
X0051936Y0169426D01*
X0051985Y0169577D01*
X0052038Y0169726D01*
X0052094Y0169874D01*
X0052154Y0170020D01*
X0052218Y0170165D01*
X0052286Y0170308D01*
X0052357Y0170450D01*
X0052431Y0170590D01*
X0052509Y0170727D01*
X0052591Y0170863D01*
X0052675Y0170997D01*
X0052764Y0171128D01*
X0052855Y0171257D01*
X0052950Y0171384D01*
X0053047Y0171509D01*
X0053148Y0171631D01*
X0053252Y0171750D01*
X0053359Y0171867D01*
X0053469Y0171981D01*
X0053582Y0172092D01*
X0053697Y0172201D01*
X0053815Y0172306D01*
X0053936Y0172408D01*
X0054059Y0172508D01*
X0054185Y0172604D01*
X0054313Y0172697D01*
X0054443Y0172787D01*
X0054576Y0172873D01*
X0054711Y0172957D01*
X0054847Y0173036D01*
X0054986Y0173113D01*
X0055127Y0173185D01*
X0055269Y0173255D01*
X0055413Y0173320D01*
X0055559Y0173382D01*
X0055706Y0173440D01*
X0055855Y0173495D01*
X0056005Y0173546D01*
X0056156Y0173593D01*
X0056308Y0173636D01*
X0056461Y0173675D01*
X0056616Y0173711D01*
X0056771Y0173742D01*
X0056927Y0173770D01*
X0057083Y0173794D01*
X0057240Y0173814D01*
X0057398Y0173830D01*
X0057555Y0173842D01*
X0057714Y0173850D01*
X0057872Y0173854D01*
X0058030Y0173854D01*
X0058188Y0173850D01*
X0058347Y0173842D01*
X0058504Y0173830D01*
X0058662Y0173814D01*
X0058819Y0173794D01*
X0058975Y0173770D01*
X0059131Y0173742D01*
X0059286Y0173711D01*
X0059441Y0173675D01*
X0059594Y0173636D01*
X0059746Y0173593D01*
X0059897Y0173546D01*
X0060047Y0173495D01*
X0060196Y0173440D01*
X0060343Y0173382D01*
X0060489Y0173320D01*
X0060633Y0173255D01*
X0060775Y0173185D01*
X0060916Y0173113D01*
X0061055Y0173036D01*
X0061191Y0172957D01*
X0061326Y0172873D01*
X0061459Y0172787D01*
X0061589Y0172697D01*
X0061717Y0172604D01*
X0061843Y0172508D01*
X0061966Y0172408D01*
X0062087Y0172306D01*
X0062205Y0172201D01*
X0062320Y0172092D01*
X0062433Y0171981D01*
X0062543Y0171867D01*
X0062650Y0171750D01*
X0062754Y0171631D01*
X0062855Y0171509D01*
X0062952Y0171384D01*
X0063047Y0171257D01*
X0063138Y0171128D01*
X0063227Y0170997D01*
X0063311Y0170863D01*
X0063393Y0170727D01*
X0063471Y0170590D01*
X0063545Y0170450D01*
X0063616Y0170308D01*
X0063684Y0170165D01*
X0063748Y0170020D01*
X0063808Y0169874D01*
X0063864Y0169726D01*
X0063917Y0169577D01*
X0063966Y0169426D01*
X0064011Y0169274D01*
X0064052Y0169121D01*
X0064090Y0168968D01*
X0064123Y0168813D01*
X0064153Y0168657D01*
X0064179Y0168501D01*
X0064200Y0168344D01*
X0064218Y0168187D01*
X0064232Y0168029D01*
X0064242Y0167871D01*
X0064248Y0167713D01*
X0064250Y0167555D01*
X0064248Y0167397D01*
X0064242Y0167239D01*
X0064232Y0167081D01*
X0064218Y0166923D01*
X0064200Y0166766D01*
X0064179Y0166609D01*
X0064153Y0166453D01*
X0064123Y0166297D01*
X0064090Y0166142D01*
X0064052Y0165989D01*
X0064011Y0165836D01*
X0063966Y0165684D01*
X0063917Y0165533D01*
X0063864Y0165384D01*
X0063808Y0165236D01*
X0063748Y0165090D01*
X0063684Y0164945D01*
X0063616Y0164802D01*
X0063545Y0164660D01*
X0063471Y0164520D01*
X0063393Y0164383D01*
X0063311Y0164247D01*
X0063227Y0164113D01*
X0063138Y0163982D01*
X0063047Y0163853D01*
X0062952Y0163726D01*
X0062855Y0163601D01*
X0062754Y0163479D01*
X0062650Y0163360D01*
X0062543Y0163243D01*
X0062433Y0163129D01*
X0062320Y0163018D01*
X0062205Y0162909D01*
X0062087Y0162804D01*
X0061966Y0162702D01*
X0061843Y0162602D01*
X0061717Y0162506D01*
X0061589Y0162413D01*
X0061459Y0162323D01*
X0061326Y0162237D01*
X0061191Y0162153D01*
X0061055Y0162074D01*
X0060916Y0161997D01*
X0060775Y0161925D01*
X0060633Y0161855D01*
X0060489Y0161790D01*
X0060343Y0161728D01*
X0060196Y0161670D01*
X0060047Y0161615D01*
X0059897Y0161564D01*
X0059746Y0161517D01*
X0059594Y0161474D01*
X0059441Y0161435D01*
X0059286Y0161399D01*
X0059131Y0161368D01*
X0058975Y0161340D01*
X0058819Y0161316D01*
X0058662Y0161296D01*
X0058504Y0161280D01*
X0058347Y0161268D01*
X0058188Y0161260D01*
X0058030Y0161256D01*
X0057872Y0161256D01*
X0057714Y0161260D01*
X0057555Y0161268D01*
X0057398Y0161280D01*
X0057240Y0161296D01*
X0057083Y0161316D01*
X0056927Y0161340D01*
X0056771Y0161368D01*
X0056616Y0161399D01*
X0056461Y0161435D01*
X0056308Y0161474D01*
X0056156Y0161517D01*
X0056005Y0161564D01*
X0055855Y0161615D01*
X0055706Y0161670D01*
X0055559Y0161728D01*
X0055413Y0161790D01*
X0055269Y0161855D01*
X0055127Y0161925D01*
X0054986Y0161997D01*
X0054847Y0162074D01*
X0054711Y0162153D01*
X0054576Y0162237D01*
X0054443Y0162323D01*
X0054313Y0162413D01*
X0054185Y0162506D01*
X0054059Y0162602D01*
X0053936Y0162702D01*
X0053815Y0162804D01*
X0053697Y0162909D01*
X0053582Y0163018D01*
X0053469Y0163129D01*
X0053359Y0163243D01*
X0053252Y0163360D01*
X0053148Y0163479D01*
X0053047Y0163601D01*
X0052950Y0163726D01*
X0052855Y0163853D01*
X0052764Y0163982D01*
X0052675Y0164113D01*
X0052591Y0164247D01*
X0052509Y0164383D01*
X0052431Y0164520D01*
X0052357Y0164660D01*
X0052286Y0164802D01*
X0052218Y0164945D01*
X0052154Y0165090D01*
X0052094Y0165236D01*
X0052038Y0165384D01*
X0051985Y0165533D01*
X0051936Y0165684D01*
X0051891Y0165836D01*
X0051850Y0165989D01*
X0051812Y0166142D01*
X0051779Y0166297D01*
X0051749Y0166453D01*
X0051723Y0166609D01*
X0051702Y0166766D01*
X0051684Y0166923D01*
X0051670Y0167081D01*
X0051660Y0167239D01*
X0051654Y0167397D01*
X0051652Y0167555D01*
X0264250Y0167555D02*
X0264252Y0167713D01*
X0264258Y0167871D01*
X0264268Y0168029D01*
X0264282Y0168187D01*
X0264300Y0168344D01*
X0264321Y0168501D01*
X0264347Y0168657D01*
X0264377Y0168813D01*
X0264410Y0168968D01*
X0264448Y0169121D01*
X0264489Y0169274D01*
X0264534Y0169426D01*
X0264583Y0169577D01*
X0264636Y0169726D01*
X0264692Y0169874D01*
X0264752Y0170020D01*
X0264816Y0170165D01*
X0264884Y0170308D01*
X0264955Y0170450D01*
X0265029Y0170590D01*
X0265107Y0170727D01*
X0265189Y0170863D01*
X0265273Y0170997D01*
X0265362Y0171128D01*
X0265453Y0171257D01*
X0265548Y0171384D01*
X0265645Y0171509D01*
X0265746Y0171631D01*
X0265850Y0171750D01*
X0265957Y0171867D01*
X0266067Y0171981D01*
X0266180Y0172092D01*
X0266295Y0172201D01*
X0266413Y0172306D01*
X0266534Y0172408D01*
X0266657Y0172508D01*
X0266783Y0172604D01*
X0266911Y0172697D01*
X0267041Y0172787D01*
X0267174Y0172873D01*
X0267309Y0172957D01*
X0267445Y0173036D01*
X0267584Y0173113D01*
X0267725Y0173185D01*
X0267867Y0173255D01*
X0268011Y0173320D01*
X0268157Y0173382D01*
X0268304Y0173440D01*
X0268453Y0173495D01*
X0268603Y0173546D01*
X0268754Y0173593D01*
X0268906Y0173636D01*
X0269059Y0173675D01*
X0269214Y0173711D01*
X0269369Y0173742D01*
X0269525Y0173770D01*
X0269681Y0173794D01*
X0269838Y0173814D01*
X0269996Y0173830D01*
X0270153Y0173842D01*
X0270312Y0173850D01*
X0270470Y0173854D01*
X0270628Y0173854D01*
X0270786Y0173850D01*
X0270945Y0173842D01*
X0271102Y0173830D01*
X0271260Y0173814D01*
X0271417Y0173794D01*
X0271573Y0173770D01*
X0271729Y0173742D01*
X0271884Y0173711D01*
X0272039Y0173675D01*
X0272192Y0173636D01*
X0272344Y0173593D01*
X0272495Y0173546D01*
X0272645Y0173495D01*
X0272794Y0173440D01*
X0272941Y0173382D01*
X0273087Y0173320D01*
X0273231Y0173255D01*
X0273373Y0173185D01*
X0273514Y0173113D01*
X0273653Y0173036D01*
X0273789Y0172957D01*
X0273924Y0172873D01*
X0274057Y0172787D01*
X0274187Y0172697D01*
X0274315Y0172604D01*
X0274441Y0172508D01*
X0274564Y0172408D01*
X0274685Y0172306D01*
X0274803Y0172201D01*
X0274918Y0172092D01*
X0275031Y0171981D01*
X0275141Y0171867D01*
X0275248Y0171750D01*
X0275352Y0171631D01*
X0275453Y0171509D01*
X0275550Y0171384D01*
X0275645Y0171257D01*
X0275736Y0171128D01*
X0275825Y0170997D01*
X0275909Y0170863D01*
X0275991Y0170727D01*
X0276069Y0170590D01*
X0276143Y0170450D01*
X0276214Y0170308D01*
X0276282Y0170165D01*
X0276346Y0170020D01*
X0276406Y0169874D01*
X0276462Y0169726D01*
X0276515Y0169577D01*
X0276564Y0169426D01*
X0276609Y0169274D01*
X0276650Y0169121D01*
X0276688Y0168968D01*
X0276721Y0168813D01*
X0276751Y0168657D01*
X0276777Y0168501D01*
X0276798Y0168344D01*
X0276816Y0168187D01*
X0276830Y0168029D01*
X0276840Y0167871D01*
X0276846Y0167713D01*
X0276848Y0167555D01*
X0276846Y0167397D01*
X0276840Y0167239D01*
X0276830Y0167081D01*
X0276816Y0166923D01*
X0276798Y0166766D01*
X0276777Y0166609D01*
X0276751Y0166453D01*
X0276721Y0166297D01*
X0276688Y0166142D01*
X0276650Y0165989D01*
X0276609Y0165836D01*
X0276564Y0165684D01*
X0276515Y0165533D01*
X0276462Y0165384D01*
X0276406Y0165236D01*
X0276346Y0165090D01*
X0276282Y0164945D01*
X0276214Y0164802D01*
X0276143Y0164660D01*
X0276069Y0164520D01*
X0275991Y0164383D01*
X0275909Y0164247D01*
X0275825Y0164113D01*
X0275736Y0163982D01*
X0275645Y0163853D01*
X0275550Y0163726D01*
X0275453Y0163601D01*
X0275352Y0163479D01*
X0275248Y0163360D01*
X0275141Y0163243D01*
X0275031Y0163129D01*
X0274918Y0163018D01*
X0274803Y0162909D01*
X0274685Y0162804D01*
X0274564Y0162702D01*
X0274441Y0162602D01*
X0274315Y0162506D01*
X0274187Y0162413D01*
X0274057Y0162323D01*
X0273924Y0162237D01*
X0273789Y0162153D01*
X0273653Y0162074D01*
X0273514Y0161997D01*
X0273373Y0161925D01*
X0273231Y0161855D01*
X0273087Y0161790D01*
X0272941Y0161728D01*
X0272794Y0161670D01*
X0272645Y0161615D01*
X0272495Y0161564D01*
X0272344Y0161517D01*
X0272192Y0161474D01*
X0272039Y0161435D01*
X0271884Y0161399D01*
X0271729Y0161368D01*
X0271573Y0161340D01*
X0271417Y0161316D01*
X0271260Y0161296D01*
X0271102Y0161280D01*
X0270945Y0161268D01*
X0270786Y0161260D01*
X0270628Y0161256D01*
X0270470Y0161256D01*
X0270312Y0161260D01*
X0270153Y0161268D01*
X0269996Y0161280D01*
X0269838Y0161296D01*
X0269681Y0161316D01*
X0269525Y0161340D01*
X0269369Y0161368D01*
X0269214Y0161399D01*
X0269059Y0161435D01*
X0268906Y0161474D01*
X0268754Y0161517D01*
X0268603Y0161564D01*
X0268453Y0161615D01*
X0268304Y0161670D01*
X0268157Y0161728D01*
X0268011Y0161790D01*
X0267867Y0161855D01*
X0267725Y0161925D01*
X0267584Y0161997D01*
X0267445Y0162074D01*
X0267309Y0162153D01*
X0267174Y0162237D01*
X0267041Y0162323D01*
X0266911Y0162413D01*
X0266783Y0162506D01*
X0266657Y0162602D01*
X0266534Y0162702D01*
X0266413Y0162804D01*
X0266295Y0162909D01*
X0266180Y0163018D01*
X0266067Y0163129D01*
X0265957Y0163243D01*
X0265850Y0163360D01*
X0265746Y0163479D01*
X0265645Y0163601D01*
X0265548Y0163726D01*
X0265453Y0163853D01*
X0265362Y0163982D01*
X0265273Y0164113D01*
X0265189Y0164247D01*
X0265107Y0164383D01*
X0265029Y0164520D01*
X0264955Y0164660D01*
X0264884Y0164802D01*
X0264816Y0164945D01*
X0264752Y0165090D01*
X0264692Y0165236D01*
X0264636Y0165384D01*
X0264583Y0165533D01*
X0264534Y0165684D01*
X0264489Y0165836D01*
X0264448Y0165989D01*
X0264410Y0166142D01*
X0264377Y0166297D01*
X0264347Y0166453D01*
X0264321Y0166609D01*
X0264300Y0166766D01*
X0264282Y0166923D01*
X0264268Y0167081D01*
X0264258Y0167239D01*
X0264252Y0167397D01*
X0264250Y0167555D01*
X0264250Y0057319D02*
X0264252Y0057477D01*
X0264258Y0057635D01*
X0264268Y0057793D01*
X0264282Y0057951D01*
X0264300Y0058108D01*
X0264321Y0058265D01*
X0264347Y0058421D01*
X0264377Y0058577D01*
X0264410Y0058732D01*
X0264448Y0058885D01*
X0264489Y0059038D01*
X0264534Y0059190D01*
X0264583Y0059341D01*
X0264636Y0059490D01*
X0264692Y0059638D01*
X0264752Y0059784D01*
X0264816Y0059929D01*
X0264884Y0060072D01*
X0264955Y0060214D01*
X0265029Y0060354D01*
X0265107Y0060491D01*
X0265189Y0060627D01*
X0265273Y0060761D01*
X0265362Y0060892D01*
X0265453Y0061021D01*
X0265548Y0061148D01*
X0265645Y0061273D01*
X0265746Y0061395D01*
X0265850Y0061514D01*
X0265957Y0061631D01*
X0266067Y0061745D01*
X0266180Y0061856D01*
X0266295Y0061965D01*
X0266413Y0062070D01*
X0266534Y0062172D01*
X0266657Y0062272D01*
X0266783Y0062368D01*
X0266911Y0062461D01*
X0267041Y0062551D01*
X0267174Y0062637D01*
X0267309Y0062721D01*
X0267445Y0062800D01*
X0267584Y0062877D01*
X0267725Y0062949D01*
X0267867Y0063019D01*
X0268011Y0063084D01*
X0268157Y0063146D01*
X0268304Y0063204D01*
X0268453Y0063259D01*
X0268603Y0063310D01*
X0268754Y0063357D01*
X0268906Y0063400D01*
X0269059Y0063439D01*
X0269214Y0063475D01*
X0269369Y0063506D01*
X0269525Y0063534D01*
X0269681Y0063558D01*
X0269838Y0063578D01*
X0269996Y0063594D01*
X0270153Y0063606D01*
X0270312Y0063614D01*
X0270470Y0063618D01*
X0270628Y0063618D01*
X0270786Y0063614D01*
X0270945Y0063606D01*
X0271102Y0063594D01*
X0271260Y0063578D01*
X0271417Y0063558D01*
X0271573Y0063534D01*
X0271729Y0063506D01*
X0271884Y0063475D01*
X0272039Y0063439D01*
X0272192Y0063400D01*
X0272344Y0063357D01*
X0272495Y0063310D01*
X0272645Y0063259D01*
X0272794Y0063204D01*
X0272941Y0063146D01*
X0273087Y0063084D01*
X0273231Y0063019D01*
X0273373Y0062949D01*
X0273514Y0062877D01*
X0273653Y0062800D01*
X0273789Y0062721D01*
X0273924Y0062637D01*
X0274057Y0062551D01*
X0274187Y0062461D01*
X0274315Y0062368D01*
X0274441Y0062272D01*
X0274564Y0062172D01*
X0274685Y0062070D01*
X0274803Y0061965D01*
X0274918Y0061856D01*
X0275031Y0061745D01*
X0275141Y0061631D01*
X0275248Y0061514D01*
X0275352Y0061395D01*
X0275453Y0061273D01*
X0275550Y0061148D01*
X0275645Y0061021D01*
X0275736Y0060892D01*
X0275825Y0060761D01*
X0275909Y0060627D01*
X0275991Y0060491D01*
X0276069Y0060354D01*
X0276143Y0060214D01*
X0276214Y0060072D01*
X0276282Y0059929D01*
X0276346Y0059784D01*
X0276406Y0059638D01*
X0276462Y0059490D01*
X0276515Y0059341D01*
X0276564Y0059190D01*
X0276609Y0059038D01*
X0276650Y0058885D01*
X0276688Y0058732D01*
X0276721Y0058577D01*
X0276751Y0058421D01*
X0276777Y0058265D01*
X0276798Y0058108D01*
X0276816Y0057951D01*
X0276830Y0057793D01*
X0276840Y0057635D01*
X0276846Y0057477D01*
X0276848Y0057319D01*
X0276846Y0057161D01*
X0276840Y0057003D01*
X0276830Y0056845D01*
X0276816Y0056687D01*
X0276798Y0056530D01*
X0276777Y0056373D01*
X0276751Y0056217D01*
X0276721Y0056061D01*
X0276688Y0055906D01*
X0276650Y0055753D01*
X0276609Y0055600D01*
X0276564Y0055448D01*
X0276515Y0055297D01*
X0276462Y0055148D01*
X0276406Y0055000D01*
X0276346Y0054854D01*
X0276282Y0054709D01*
X0276214Y0054566D01*
X0276143Y0054424D01*
X0276069Y0054284D01*
X0275991Y0054147D01*
X0275909Y0054011D01*
X0275825Y0053877D01*
X0275736Y0053746D01*
X0275645Y0053617D01*
X0275550Y0053490D01*
X0275453Y0053365D01*
X0275352Y0053243D01*
X0275248Y0053124D01*
X0275141Y0053007D01*
X0275031Y0052893D01*
X0274918Y0052782D01*
X0274803Y0052673D01*
X0274685Y0052568D01*
X0274564Y0052466D01*
X0274441Y0052366D01*
X0274315Y0052270D01*
X0274187Y0052177D01*
X0274057Y0052087D01*
X0273924Y0052001D01*
X0273789Y0051917D01*
X0273653Y0051838D01*
X0273514Y0051761D01*
X0273373Y0051689D01*
X0273231Y0051619D01*
X0273087Y0051554D01*
X0272941Y0051492D01*
X0272794Y0051434D01*
X0272645Y0051379D01*
X0272495Y0051328D01*
X0272344Y0051281D01*
X0272192Y0051238D01*
X0272039Y0051199D01*
X0271884Y0051163D01*
X0271729Y0051132D01*
X0271573Y0051104D01*
X0271417Y0051080D01*
X0271260Y0051060D01*
X0271102Y0051044D01*
X0270945Y0051032D01*
X0270786Y0051024D01*
X0270628Y0051020D01*
X0270470Y0051020D01*
X0270312Y0051024D01*
X0270153Y0051032D01*
X0269996Y0051044D01*
X0269838Y0051060D01*
X0269681Y0051080D01*
X0269525Y0051104D01*
X0269369Y0051132D01*
X0269214Y0051163D01*
X0269059Y0051199D01*
X0268906Y0051238D01*
X0268754Y0051281D01*
X0268603Y0051328D01*
X0268453Y0051379D01*
X0268304Y0051434D01*
X0268157Y0051492D01*
X0268011Y0051554D01*
X0267867Y0051619D01*
X0267725Y0051689D01*
X0267584Y0051761D01*
X0267445Y0051838D01*
X0267309Y0051917D01*
X0267174Y0052001D01*
X0267041Y0052087D01*
X0266911Y0052177D01*
X0266783Y0052270D01*
X0266657Y0052366D01*
X0266534Y0052466D01*
X0266413Y0052568D01*
X0266295Y0052673D01*
X0266180Y0052782D01*
X0266067Y0052893D01*
X0265957Y0053007D01*
X0265850Y0053124D01*
X0265746Y0053243D01*
X0265645Y0053365D01*
X0265548Y0053490D01*
X0265453Y0053617D01*
X0265362Y0053746D01*
X0265273Y0053877D01*
X0265189Y0054011D01*
X0265107Y0054147D01*
X0265029Y0054284D01*
X0264955Y0054424D01*
X0264884Y0054566D01*
X0264816Y0054709D01*
X0264752Y0054854D01*
X0264692Y0055000D01*
X0264636Y0055148D01*
X0264583Y0055297D01*
X0264534Y0055448D01*
X0264489Y0055600D01*
X0264448Y0055753D01*
X0264410Y0055906D01*
X0264377Y0056061D01*
X0264347Y0056217D01*
X0264321Y0056373D01*
X0264300Y0056530D01*
X0264282Y0056687D01*
X0264268Y0056845D01*
X0264258Y0057003D01*
X0264252Y0057161D01*
X0264250Y0057319D01*
D16*
X0304394Y0015612D02*
X0304396Y0015765D01*
X0304402Y0015919D01*
X0304412Y0016072D01*
X0304426Y0016224D01*
X0304444Y0016377D01*
X0304466Y0016528D01*
X0304491Y0016679D01*
X0304521Y0016830D01*
X0304555Y0016980D01*
X0304592Y0017128D01*
X0304633Y0017276D01*
X0304678Y0017422D01*
X0304727Y0017568D01*
X0304780Y0017712D01*
X0304836Y0017854D01*
X0304896Y0017995D01*
X0304960Y0018135D01*
X0305027Y0018273D01*
X0305098Y0018409D01*
X0305173Y0018543D01*
X0305250Y0018675D01*
X0305332Y0018805D01*
X0305416Y0018933D01*
X0305504Y0019059D01*
X0305595Y0019182D01*
X0305689Y0019303D01*
X0305787Y0019421D01*
X0305887Y0019537D01*
X0305991Y0019650D01*
X0306097Y0019761D01*
X0306206Y0019869D01*
X0306318Y0019974D01*
X0306432Y0020075D01*
X0306550Y0020174D01*
X0306669Y0020270D01*
X0306791Y0020363D01*
X0306916Y0020452D01*
X0307043Y0020539D01*
X0307172Y0020621D01*
X0307303Y0020701D01*
X0307436Y0020777D01*
X0307571Y0020850D01*
X0307708Y0020919D01*
X0307847Y0020984D01*
X0307987Y0021046D01*
X0308129Y0021104D01*
X0308272Y0021159D01*
X0308417Y0021210D01*
X0308563Y0021257D01*
X0308710Y0021300D01*
X0308858Y0021339D01*
X0309007Y0021375D01*
X0309157Y0021406D01*
X0309308Y0021434D01*
X0309459Y0021458D01*
X0309612Y0021478D01*
X0309764Y0021494D01*
X0309917Y0021506D01*
X0310070Y0021514D01*
X0310223Y0021518D01*
X0310377Y0021518D01*
X0310530Y0021514D01*
X0310683Y0021506D01*
X0310836Y0021494D01*
X0310988Y0021478D01*
X0311141Y0021458D01*
X0311292Y0021434D01*
X0311443Y0021406D01*
X0311593Y0021375D01*
X0311742Y0021339D01*
X0311890Y0021300D01*
X0312037Y0021257D01*
X0312183Y0021210D01*
X0312328Y0021159D01*
X0312471Y0021104D01*
X0312613Y0021046D01*
X0312753Y0020984D01*
X0312892Y0020919D01*
X0313029Y0020850D01*
X0313164Y0020777D01*
X0313297Y0020701D01*
X0313428Y0020621D01*
X0313557Y0020539D01*
X0313684Y0020452D01*
X0313809Y0020363D01*
X0313931Y0020270D01*
X0314050Y0020174D01*
X0314168Y0020075D01*
X0314282Y0019974D01*
X0314394Y0019869D01*
X0314503Y0019761D01*
X0314609Y0019650D01*
X0314713Y0019537D01*
X0314813Y0019421D01*
X0314911Y0019303D01*
X0315005Y0019182D01*
X0315096Y0019059D01*
X0315184Y0018933D01*
X0315268Y0018805D01*
X0315350Y0018675D01*
X0315427Y0018543D01*
X0315502Y0018409D01*
X0315573Y0018273D01*
X0315640Y0018135D01*
X0315704Y0017995D01*
X0315764Y0017854D01*
X0315820Y0017712D01*
X0315873Y0017568D01*
X0315922Y0017422D01*
X0315967Y0017276D01*
X0316008Y0017128D01*
X0316045Y0016980D01*
X0316079Y0016830D01*
X0316109Y0016679D01*
X0316134Y0016528D01*
X0316156Y0016377D01*
X0316174Y0016224D01*
X0316188Y0016072D01*
X0316198Y0015919D01*
X0316204Y0015765D01*
X0316206Y0015612D01*
X0316204Y0015459D01*
X0316198Y0015305D01*
X0316188Y0015152D01*
X0316174Y0015000D01*
X0316156Y0014847D01*
X0316134Y0014696D01*
X0316109Y0014545D01*
X0316079Y0014394D01*
X0316045Y0014244D01*
X0316008Y0014096D01*
X0315967Y0013948D01*
X0315922Y0013802D01*
X0315873Y0013656D01*
X0315820Y0013512D01*
X0315764Y0013370D01*
X0315704Y0013229D01*
X0315640Y0013089D01*
X0315573Y0012951D01*
X0315502Y0012815D01*
X0315427Y0012681D01*
X0315350Y0012549D01*
X0315268Y0012419D01*
X0315184Y0012291D01*
X0315096Y0012165D01*
X0315005Y0012042D01*
X0314911Y0011921D01*
X0314813Y0011803D01*
X0314713Y0011687D01*
X0314609Y0011574D01*
X0314503Y0011463D01*
X0314394Y0011355D01*
X0314282Y0011250D01*
X0314168Y0011149D01*
X0314050Y0011050D01*
X0313931Y0010954D01*
X0313809Y0010861D01*
X0313684Y0010772D01*
X0313557Y0010685D01*
X0313428Y0010603D01*
X0313297Y0010523D01*
X0313164Y0010447D01*
X0313029Y0010374D01*
X0312892Y0010305D01*
X0312753Y0010240D01*
X0312613Y0010178D01*
X0312471Y0010120D01*
X0312328Y0010065D01*
X0312183Y0010014D01*
X0312037Y0009967D01*
X0311890Y0009924D01*
X0311742Y0009885D01*
X0311593Y0009849D01*
X0311443Y0009818D01*
X0311292Y0009790D01*
X0311141Y0009766D01*
X0310988Y0009746D01*
X0310836Y0009730D01*
X0310683Y0009718D01*
X0310530Y0009710D01*
X0310377Y0009706D01*
X0310223Y0009706D01*
X0310070Y0009710D01*
X0309917Y0009718D01*
X0309764Y0009730D01*
X0309612Y0009746D01*
X0309459Y0009766D01*
X0309308Y0009790D01*
X0309157Y0009818D01*
X0309007Y0009849D01*
X0308858Y0009885D01*
X0308710Y0009924D01*
X0308563Y0009967D01*
X0308417Y0010014D01*
X0308272Y0010065D01*
X0308129Y0010120D01*
X0307987Y0010178D01*
X0307847Y0010240D01*
X0307708Y0010305D01*
X0307571Y0010374D01*
X0307436Y0010447D01*
X0307303Y0010523D01*
X0307172Y0010603D01*
X0307043Y0010685D01*
X0306916Y0010772D01*
X0306791Y0010861D01*
X0306669Y0010954D01*
X0306550Y0011050D01*
X0306432Y0011149D01*
X0306318Y0011250D01*
X0306206Y0011355D01*
X0306097Y0011463D01*
X0305991Y0011574D01*
X0305887Y0011687D01*
X0305787Y0011803D01*
X0305689Y0011921D01*
X0305595Y0012042D01*
X0305504Y0012165D01*
X0305416Y0012291D01*
X0305332Y0012419D01*
X0305250Y0012549D01*
X0305173Y0012681D01*
X0305098Y0012815D01*
X0305027Y0012951D01*
X0304960Y0013089D01*
X0304896Y0013229D01*
X0304836Y0013370D01*
X0304780Y0013512D01*
X0304727Y0013656D01*
X0304678Y0013802D01*
X0304633Y0013948D01*
X0304592Y0014096D01*
X0304555Y0014244D01*
X0304521Y0014394D01*
X0304491Y0014545D01*
X0304466Y0014696D01*
X0304444Y0014847D01*
X0304426Y0015000D01*
X0304412Y0015152D01*
X0304402Y0015305D01*
X0304396Y0015459D01*
X0304394Y0015612D01*
D17*
X0307550Y0018112D02*
X0307631Y0018198D01*
X0307714Y0018282D01*
X0307801Y0018363D01*
X0307890Y0018441D01*
X0307982Y0018516D01*
X0308076Y0018587D01*
X0308172Y0018656D01*
X0308271Y0018721D01*
X0308371Y0018783D01*
X0308474Y0018842D01*
X0308579Y0018897D01*
X0308685Y0018948D01*
X0308794Y0018996D01*
X0308903Y0019041D01*
X0309014Y0019081D01*
X0309127Y0019118D01*
X0309240Y0019151D01*
X0309355Y0019181D01*
X0309470Y0019206D01*
X0309587Y0019228D01*
X0309704Y0019245D01*
X0309821Y0019259D01*
X0309939Y0019269D01*
X0310057Y0019275D01*
X0310176Y0019277D01*
X0310294Y0019275D01*
X0310412Y0019269D01*
X0310530Y0019259D01*
X0310647Y0019245D01*
X0310764Y0019228D01*
X0310881Y0019206D01*
X0310996Y0019180D01*
X0311111Y0019151D01*
X0311224Y0019118D01*
X0311337Y0019081D01*
X0311448Y0019040D01*
X0311558Y0018996D01*
X0311666Y0018948D01*
X0311772Y0018896D01*
X0311877Y0018841D01*
X0311980Y0018783D01*
X0312080Y0018721D01*
X0312179Y0018655D01*
X0312275Y0018587D01*
X0312369Y0018515D01*
X0312461Y0018440D01*
X0312550Y0018362D01*
X0312636Y0018281D01*
X0312720Y0018198D01*
X0312801Y0018111D01*
X0312879Y0018022D01*
X0312954Y0017930D01*
X0313025Y0017836D01*
X0313094Y0017740D01*
X0313159Y0017641D01*
X0313221Y0017541D01*
X0313280Y0017438D01*
X0313335Y0017333D01*
X0313386Y0017227D01*
X0313434Y0017118D01*
X0313479Y0017009D01*
X0313519Y0016898D01*
X0313556Y0016785D01*
X0313589Y0016672D01*
X0313619Y0016557D01*
X0313644Y0016442D01*
X0313666Y0016325D01*
X0313683Y0016208D01*
X0313697Y0016091D01*
X0313707Y0015973D01*
X0313713Y0015855D01*
X0313715Y0015736D01*
X0313713Y0015618D01*
X0313707Y0015500D01*
X0313697Y0015382D01*
X0313683Y0015265D01*
X0313666Y0015148D01*
X0313644Y0015031D01*
X0313618Y0014916D01*
X0313589Y0014801D01*
X0313556Y0014688D01*
X0313519Y0014575D01*
X0313478Y0014464D01*
X0313434Y0014354D01*
X0313386Y0014246D01*
X0313334Y0014140D01*
X0313279Y0014035D01*
X0313221Y0013932D01*
X0313159Y0013832D01*
X0313093Y0013733D01*
X0313025Y0013637D01*
X0312953Y0013543D01*
X0312878Y0013451D01*
X0312800Y0013362D01*
X0312719Y0013276D01*
X0312636Y0013192D01*
X0312549Y0013111D01*
X0312460Y0013033D01*
X0312368Y0012958D01*
X0312274Y0012887D01*
X0312178Y0012818D01*
X0312079Y0012753D01*
X0311979Y0012691D01*
X0311876Y0012632D01*
X0311771Y0012577D01*
X0311665Y0012526D01*
X0311556Y0012478D01*
X0311447Y0012433D01*
X0311336Y0012393D01*
X0311223Y0012356D01*
X0311110Y0012323D01*
X0310995Y0012293D01*
X0310880Y0012268D01*
X0310763Y0012246D01*
X0310646Y0012229D01*
X0310529Y0012215D01*
X0310411Y0012205D01*
X0310293Y0012199D01*
X0310174Y0012197D01*
X0310056Y0012199D01*
X0309938Y0012205D01*
X0309820Y0012215D01*
X0309703Y0012229D01*
X0309586Y0012246D01*
X0309469Y0012268D01*
X0309354Y0012294D01*
X0309239Y0012323D01*
X0309126Y0012356D01*
X0309013Y0012393D01*
X0308902Y0012434D01*
X0308792Y0012478D01*
X0308684Y0012526D01*
X0308578Y0012578D01*
X0308473Y0012633D01*
X0308370Y0012691D01*
X0308270Y0012753D01*
X0308171Y0012819D01*
X0308075Y0012887D01*
X0307981Y0012959D01*
X0307889Y0013034D01*
X0307800Y0013112D01*
D18*
X0307173Y0040587D03*
X0305844Y0040587D03*
X0305795Y0040587D03*
X0305746Y0040587D03*
X0308748Y0040710D03*
X0306878Y0043785D03*
X0306386Y0043761D03*
X0306337Y0043761D03*
X0306287Y0043761D03*
X0305697Y0043785D03*
X0305352Y0046738D03*
X0305943Y0046812D03*
X0306337Y0046837D03*
X0306829Y0049174D03*
X0306041Y0049223D03*
X0305992Y0049223D03*
X0305648Y0049273D03*
X0309240Y0045754D03*
X0309289Y0045754D03*
X0309535Y0045754D03*
X0309781Y0045754D03*
X0310028Y0045754D03*
X0310274Y0045754D03*
X0310520Y0045754D03*
X0310766Y0045754D03*
X0311012Y0045754D03*
X0311258Y0045754D03*
X0311504Y0045754D03*
X0311750Y0045754D03*
X0311996Y0045754D03*
X0312242Y0045754D03*
X0312488Y0045754D03*
X0312734Y0045754D03*
X0312980Y0045754D03*
X0313226Y0045754D03*
X0313472Y0045754D03*
X0313719Y0045754D03*
X0313965Y0045754D03*
X0314211Y0045754D03*
X0314457Y0045754D03*
X0314703Y0045754D03*
X0306435Y0051832D03*
X0306386Y0051832D03*
X0306337Y0051832D03*
X0306189Y0051832D03*
X0305894Y0051832D03*
X0305844Y0051832D03*
X0305500Y0051807D03*
X0304614Y0054858D03*
X0304565Y0054858D03*
X0304516Y0054858D03*
X0303974Y0054809D03*
X0303728Y0054784D03*
X0303679Y0054784D03*
X0307419Y0054858D03*
X0308010Y0054809D03*
X0308896Y0054686D03*
X0303482Y0060222D03*
X0303433Y0060222D03*
X0303384Y0060222D03*
X0303335Y0060222D03*
X0303285Y0060222D03*
X0303236Y0060222D03*
X0303187Y0060222D03*
X0303138Y0060222D03*
X0303089Y0060222D03*
X0303039Y0060222D03*
X0302990Y0060222D03*
X0302941Y0060222D03*
X0302892Y0060222D03*
X0302843Y0060222D03*
X0302793Y0060222D03*
X0302744Y0060222D03*
X0302695Y0060222D03*
X0302646Y0060222D03*
X0302596Y0060222D03*
X0302547Y0060222D03*
X0302498Y0060222D03*
X0302449Y0060222D03*
X0302400Y0060222D03*
X0302350Y0060222D03*
X0302301Y0060222D03*
X0302252Y0060222D03*
X0302203Y0060222D03*
X0302154Y0060222D03*
X0302104Y0060222D03*
X0302055Y0060222D03*
X0302006Y0060222D03*
X0301957Y0060222D03*
X0301907Y0060222D03*
X0301858Y0060222D03*
X0301809Y0060222D03*
X0301760Y0060222D03*
X0301711Y0060222D03*
X0301661Y0060222D03*
X0301612Y0060222D03*
X0301563Y0060222D03*
X0301514Y0060222D03*
X0301465Y0060222D03*
X0301415Y0060222D03*
X0301366Y0060222D03*
X0301317Y0060222D03*
X0301268Y0060222D03*
X0301219Y0060222D03*
X0301169Y0060222D03*
X0301120Y0060222D03*
X0301071Y0060222D03*
X0301022Y0060222D03*
X0300972Y0060222D03*
X0300923Y0060222D03*
X0300874Y0060222D03*
X0300825Y0060222D03*
X0300776Y0060222D03*
X0300726Y0060222D03*
X0300677Y0060222D03*
X0300628Y0060222D03*
X0300579Y0060222D03*
X0300530Y0060222D03*
X0300480Y0060222D03*
X0300431Y0060222D03*
X0300382Y0060222D03*
X0300333Y0060222D03*
X0300283Y0060222D03*
X0300234Y0060222D03*
X0300185Y0060222D03*
X0300136Y0060222D03*
X0300087Y0060222D03*
X0300037Y0060222D03*
X0299988Y0060222D03*
X0299939Y0060222D03*
X0299890Y0060222D03*
X0299841Y0060222D03*
X0299791Y0060222D03*
X0299742Y0060222D03*
X0299693Y0060222D03*
X0299644Y0060222D03*
X0299594Y0060222D03*
X0299545Y0060222D03*
X0299496Y0060222D03*
X0299447Y0060222D03*
X0299398Y0060222D03*
X0299348Y0060222D03*
X0299299Y0060222D03*
X0299250Y0060222D03*
X0299201Y0060222D03*
X0299152Y0060222D03*
X0299102Y0060222D03*
X0299053Y0060222D03*
X0299004Y0060222D03*
X0298955Y0060222D03*
X0298906Y0060222D03*
X0298856Y0060222D03*
X0298610Y0060222D03*
X0295411Y0060222D03*
X0295215Y0060222D03*
X0295165Y0060222D03*
X0294969Y0060222D03*
X0294919Y0060222D03*
X0294772Y0060222D03*
X0294722Y0060222D03*
X0294526Y0060222D03*
X0294476Y0060222D03*
X0294329Y0060222D03*
X0294280Y0060222D03*
X0294083Y0060222D03*
X0294033Y0060222D03*
X0293886Y0060222D03*
X0293837Y0060222D03*
X0293640Y0060222D03*
X0293591Y0060222D03*
X0293443Y0060222D03*
X0293394Y0060222D03*
X0293197Y0060222D03*
X0293148Y0060222D03*
X0293000Y0060222D03*
X0292951Y0060222D03*
X0292754Y0060222D03*
X0292705Y0060222D03*
X0292557Y0060222D03*
X0292508Y0060222D03*
X0292311Y0060222D03*
X0292262Y0060222D03*
X0292114Y0060222D03*
X0292065Y0060222D03*
X0291868Y0060222D03*
X0291819Y0060222D03*
X0291671Y0060222D03*
X0291622Y0060222D03*
X0291425Y0060222D03*
X0291376Y0060222D03*
X0291228Y0060222D03*
X0291179Y0060222D03*
X0290933Y0060222D03*
X0290884Y0060222D03*
X0290835Y0060222D03*
X0290638Y0060222D03*
X0290589Y0060222D03*
X0290539Y0060222D03*
X0290490Y0060222D03*
X0290441Y0060222D03*
X0300825Y0041399D03*
D19*
X0303704Y0040734D03*
X0304147Y0040685D03*
X0305672Y0040587D03*
X0307050Y0040587D03*
X0307099Y0040587D03*
X0308281Y0040660D03*
X0306804Y0043785D03*
X0306214Y0043761D03*
X0306164Y0043761D03*
X0306115Y0043761D03*
X0305771Y0043785D03*
X0306410Y0046837D03*
X0306952Y0049174D03*
X0307001Y0049174D03*
X0307050Y0049174D03*
X0307099Y0049174D03*
X0307149Y0049174D03*
X0307198Y0049174D03*
X0307247Y0049174D03*
X0307296Y0049174D03*
X0307345Y0049174D03*
X0307395Y0049174D03*
X0307444Y0049174D03*
X0307493Y0049174D03*
X0305475Y0049297D03*
X0309412Y0045754D03*
X0309658Y0045754D03*
X0309905Y0045754D03*
X0310151Y0045754D03*
X0310397Y0045754D03*
X0310643Y0045754D03*
X0310889Y0045754D03*
X0311135Y0045754D03*
X0311381Y0045754D03*
X0311627Y0045754D03*
X0311873Y0045754D03*
X0312119Y0045754D03*
X0312365Y0045754D03*
X0312611Y0045754D03*
X0312857Y0045754D03*
X0313103Y0045754D03*
X0313349Y0045754D03*
X0313595Y0045754D03*
X0313842Y0045754D03*
X0314088Y0045754D03*
X0314334Y0045754D03*
X0314580Y0045754D03*
X0314826Y0045754D03*
X0314875Y0045754D03*
X0314875Y0044942D03*
X0306804Y0051807D03*
X0306263Y0051832D03*
X0306066Y0051832D03*
X0305968Y0051832D03*
X0305279Y0051783D03*
X0304442Y0054858D03*
X0304196Y0054834D03*
X0304147Y0054834D03*
X0303901Y0054809D03*
X0303507Y0054760D03*
X0303310Y0054735D03*
X0303162Y0054711D03*
X0307493Y0054858D03*
X0307690Y0054834D03*
X0307739Y0054834D03*
X0308182Y0054784D03*
X0308576Y0054735D03*
X0303655Y0060222D03*
X0298782Y0060222D03*
X0298733Y0060222D03*
X0298684Y0060222D03*
X0295485Y0060222D03*
X0295338Y0060222D03*
X0295288Y0060222D03*
X0295092Y0060222D03*
X0295042Y0060222D03*
X0294845Y0060222D03*
X0294649Y0060222D03*
X0294599Y0060222D03*
X0294403Y0060222D03*
X0294206Y0060222D03*
X0294156Y0060222D03*
X0293960Y0060222D03*
X0293763Y0060222D03*
X0293714Y0060222D03*
X0293517Y0060222D03*
X0293320Y0060222D03*
X0293271Y0060222D03*
X0293074Y0060222D03*
X0292877Y0060222D03*
X0292828Y0060222D03*
X0292631Y0060222D03*
X0292434Y0060222D03*
X0292385Y0060222D03*
X0292188Y0060222D03*
X0291991Y0060222D03*
X0291942Y0060222D03*
X0291745Y0060222D03*
X0291548Y0060222D03*
X0291499Y0060222D03*
X0291302Y0060222D03*
X0291105Y0060222D03*
X0291056Y0060222D03*
X0291007Y0060222D03*
X0290761Y0060222D03*
X0290712Y0060222D03*
X0300259Y0048288D03*
D20*
X0305783Y0051832D03*
X0308391Y0054760D03*
X0303569Y0060222D03*
X0306767Y0049174D03*
X0306890Y0049174D03*
X0309351Y0045754D03*
X0309474Y0045754D03*
X0309597Y0045754D03*
X0309720Y0045754D03*
X0309843Y0045754D03*
X0309966Y0045754D03*
X0310089Y0045754D03*
X0310212Y0045754D03*
X0310335Y0045754D03*
X0310458Y0045754D03*
X0310581Y0045754D03*
X0310704Y0045754D03*
X0310827Y0045754D03*
X0310950Y0045754D03*
X0311073Y0045754D03*
X0311196Y0045754D03*
X0311319Y0045754D03*
X0311443Y0045754D03*
X0311565Y0045754D03*
X0311689Y0045754D03*
X0311811Y0045754D03*
X0311935Y0045754D03*
X0312057Y0045754D03*
X0312181Y0045754D03*
X0312304Y0045754D03*
X0312427Y0045754D03*
X0312550Y0045754D03*
X0312673Y0045754D03*
X0312796Y0045754D03*
X0312919Y0045754D03*
X0313042Y0045754D03*
X0313165Y0045754D03*
X0313288Y0045754D03*
X0313411Y0045754D03*
X0313534Y0045754D03*
X0313657Y0045754D03*
X0313780Y0045754D03*
X0313903Y0045754D03*
X0314026Y0045754D03*
X0314149Y0045754D03*
X0314272Y0045754D03*
X0314395Y0045754D03*
X0314518Y0045754D03*
X0314641Y0045754D03*
X0314764Y0045754D03*
X0306447Y0043761D03*
X0306054Y0043761D03*
X0305906Y0040587D03*
X0306915Y0040587D03*
X0306989Y0040587D03*
X0304405Y0040660D03*
D21*
X0305992Y0040587D03*
X0306091Y0040587D03*
X0306829Y0040587D03*
D22*
X0306460Y0040587D03*
D23*
X0307641Y0040611D03*
X0307050Y0043810D03*
X0306361Y0049199D03*
X0306312Y0049199D03*
X0307099Y0054883D03*
X0304983Y0054883D03*
X0304934Y0054883D03*
D24*
X0306915Y0054883D03*
X0307579Y0040611D03*
X0305168Y0040611D03*
D25*
X0306374Y0040611D03*
D26*
X0305106Y0040611D03*
X0305057Y0040611D03*
X0305500Y0043810D03*
X0306435Y0049199D03*
X0306976Y0054883D03*
X0307026Y0054883D03*
X0304860Y0054883D03*
D27*
X0305574Y0054907D03*
X0305672Y0054907D03*
X0305820Y0054907D03*
X0306312Y0054907D03*
X0306460Y0054907D03*
X0305820Y0049248D03*
X0305229Y0049346D03*
X0305721Y0046787D03*
X0305328Y0043835D03*
X0308034Y0040636D03*
D28*
X0306398Y0040636D03*
D29*
X0304762Y0040636D03*
X0304713Y0040636D03*
X0305746Y0054907D03*
X0305894Y0054907D03*
X0305943Y0054907D03*
X0305992Y0054907D03*
X0306041Y0054907D03*
X0306091Y0054907D03*
X0306140Y0054907D03*
X0306189Y0054907D03*
X0306238Y0054907D03*
X0306386Y0054907D03*
X0306533Y0054907D03*
D30*
X0306349Y0040660D03*
D31*
X0306361Y0040685D03*
D32*
X0306300Y0040710D03*
X0294661Y0054489D03*
X0294710Y0054538D03*
X0294735Y0054563D03*
X0294169Y0058968D03*
X0294144Y0058992D03*
D33*
X0305943Y0054735D03*
X0293049Y0052718D03*
X0292951Y0052619D03*
X0306337Y0040734D03*
D34*
X0306287Y0040759D03*
X0311602Y0050380D03*
X0311602Y0050429D03*
D35*
X0301391Y0049666D03*
X0306312Y0040783D03*
D36*
X0306275Y0040808D03*
X0311565Y0044253D03*
X0311590Y0044278D03*
X0300689Y0044671D03*
X0300689Y0044696D03*
X0300665Y0044770D03*
X0300689Y0045951D03*
X0297097Y0056212D03*
D37*
X0306287Y0040833D03*
D38*
X0306275Y0040857D03*
D39*
X0306275Y0040882D03*
X0302264Y0049248D03*
D40*
X0306263Y0040907D03*
D41*
X0306275Y0040931D03*
X0310237Y0051832D03*
D42*
X0297085Y0057639D03*
X0306238Y0040956D03*
D43*
X0306251Y0040980D03*
X0303568Y0048067D03*
X0297097Y0057737D03*
D44*
X0303433Y0048781D03*
X0306238Y0041005D03*
D45*
X0306251Y0041030D03*
X0302117Y0046837D03*
X0303371Y0048879D03*
D46*
X0303273Y0049027D03*
X0306226Y0041054D03*
D47*
X0306238Y0041079D03*
D48*
X0306238Y0041103D03*
D49*
X0306226Y0041128D03*
D50*
X0306214Y0041153D03*
X0297109Y0054735D03*
D51*
X0302830Y0047083D03*
X0302806Y0047058D03*
X0306226Y0041177D03*
D52*
X0306226Y0041202D03*
D53*
X0306226Y0041226D03*
D54*
X0306201Y0041251D03*
D55*
X0306214Y0041276D03*
D56*
X0306201Y0041300D03*
D57*
X0306214Y0041325D03*
D58*
X0306201Y0041349D03*
D59*
X0306201Y0041374D03*
D60*
X0306214Y0041399D03*
D61*
X0306201Y0041423D03*
D62*
X0306201Y0041448D03*
D63*
X0306201Y0041472D03*
D64*
X0306177Y0041497D03*
D65*
X0306201Y0041522D03*
D66*
X0306189Y0041546D03*
D67*
X0306201Y0041571D03*
D68*
X0306177Y0041595D03*
D69*
X0306189Y0041620D03*
D70*
X0306177Y0041645D03*
D71*
X0306189Y0041669D03*
D72*
X0306177Y0041694D03*
D73*
X0306189Y0041719D03*
D74*
X0306164Y0041743D03*
D75*
X0306189Y0041768D03*
D76*
X0306164Y0041792D03*
D77*
X0306177Y0041817D03*
X0303667Y0054465D03*
D78*
X0306164Y0041842D03*
D79*
X0306177Y0041866D03*
D80*
X0306164Y0041891D03*
D81*
X0306177Y0041915D03*
D82*
X0306164Y0041940D03*
D83*
X0306177Y0041965D03*
X0304060Y0054268D03*
D84*
X0306164Y0041989D03*
D85*
X0306164Y0042014D03*
D86*
X0306177Y0042038D03*
D87*
X0306164Y0042063D03*
D88*
X0306164Y0042088D03*
D89*
X0306164Y0042112D03*
D90*
X0306164Y0042137D03*
D91*
X0306164Y0042161D03*
D92*
X0306164Y0042186D03*
D93*
X0306164Y0042211D03*
X0304786Y0053825D03*
D94*
X0306164Y0042235D03*
D95*
X0306164Y0042260D03*
D96*
X0306152Y0042284D03*
D97*
X0306164Y0042309D03*
D98*
X0306164Y0042334D03*
D99*
X0306164Y0042358D03*
D100*
X0306152Y0042383D03*
X0305414Y0053333D03*
X0305389Y0053357D03*
D101*
X0305525Y0053234D03*
X0306164Y0042408D03*
D102*
X0306164Y0042432D03*
X0305623Y0053136D03*
D103*
X0305734Y0053037D03*
X0305783Y0052988D03*
X0306152Y0042457D03*
D104*
X0306152Y0042481D03*
X0305881Y0052865D03*
X0305881Y0052890D03*
D105*
X0306017Y0052718D03*
X0306164Y0042506D03*
D106*
X0306164Y0042531D03*
D107*
X0306164Y0042555D03*
D108*
X0306152Y0042580D03*
D109*
X0306164Y0042604D03*
D110*
X0306152Y0042629D03*
D111*
X0306164Y0042654D03*
D112*
X0306152Y0042678D03*
X0306029Y0052496D03*
D113*
X0306164Y0042703D03*
D114*
X0306152Y0042727D03*
D115*
X0306164Y0042752D03*
D116*
X0306152Y0042777D03*
X0306054Y0052373D03*
D117*
X0306164Y0042801D03*
D118*
X0306152Y0042826D03*
D119*
X0306164Y0042850D03*
X0306066Y0052225D03*
D120*
X0306152Y0042875D03*
D121*
X0306164Y0042900D03*
X0306164Y0042924D03*
X0306066Y0052152D03*
D122*
X0306078Y0052078D03*
X0306152Y0042949D03*
D123*
X0306152Y0042973D03*
X0306078Y0052053D03*
D124*
X0306066Y0052029D03*
X0306164Y0042998D03*
D125*
X0306164Y0043023D03*
D126*
X0306164Y0043047D03*
D127*
X0306152Y0043072D03*
D128*
X0306177Y0043096D03*
D129*
X0306152Y0043121D03*
D130*
X0306164Y0043146D03*
D131*
X0306152Y0043170D03*
D132*
X0306177Y0043195D03*
D133*
X0306152Y0043220D03*
D134*
X0306164Y0043244D03*
D135*
X0306164Y0043269D03*
D136*
X0306177Y0043293D03*
D137*
X0306152Y0043318D03*
D138*
X0306164Y0043343D03*
D139*
X0306152Y0043367D03*
D140*
X0306164Y0043392D03*
D141*
X0306177Y0043416D03*
D142*
X0306164Y0043441D03*
X0306164Y0043466D03*
D143*
X0306164Y0043490D03*
D144*
X0306152Y0043515D03*
X0306177Y0043539D03*
D145*
X0306164Y0043564D03*
D146*
X0306164Y0043589D03*
D147*
X0306164Y0043613D03*
X0306164Y0043638D03*
D148*
X0306177Y0043662D03*
D149*
X0306177Y0043687D03*
D150*
X0306164Y0043712D03*
D151*
X0306177Y0043736D03*
D152*
X0310495Y0043761D03*
X0303556Y0048658D03*
X0297109Y0055350D03*
D153*
X0301920Y0043761D03*
D154*
X0310704Y0043785D03*
X0305955Y0054514D03*
X0297097Y0055547D03*
D155*
X0303618Y0048116D03*
X0301748Y0043785D03*
D156*
X0310803Y0043810D03*
X0297097Y0055621D03*
D157*
X0301686Y0046763D03*
X0301637Y0043810D03*
D158*
X0310913Y0043835D03*
D159*
X0301551Y0043835D03*
D160*
X0301366Y0043908D03*
X0310963Y0043859D03*
D161*
X0301465Y0043859D03*
D162*
X0311036Y0043884D03*
D163*
X0303913Y0048338D03*
X0301428Y0043884D03*
X0297097Y0055695D03*
D164*
X0297109Y0057270D03*
X0301292Y0046615D03*
X0301243Y0043982D03*
X0311086Y0043908D03*
D165*
X0311159Y0043933D03*
X0302154Y0049273D03*
X0301169Y0044032D03*
X0310618Y0051758D03*
D166*
X0301698Y0051783D03*
X0297097Y0055793D03*
X0301329Y0043933D03*
D167*
X0311196Y0043958D03*
X0297097Y0055941D03*
D168*
X0301268Y0043958D03*
D169*
X0301046Y0044130D03*
X0301095Y0046492D03*
X0302080Y0049297D03*
X0311233Y0043982D03*
X0297109Y0057147D03*
D170*
X0297097Y0055990D03*
X0305955Y0054612D03*
X0311270Y0044007D03*
D171*
X0301194Y0044007D03*
X0301243Y0046591D03*
D172*
X0301009Y0046418D03*
X0301428Y0051659D03*
X0297097Y0056039D03*
X0311319Y0044032D03*
D173*
X0311344Y0044056D03*
X0310778Y0051684D03*
D174*
X0301132Y0044056D03*
D175*
X0311381Y0044081D03*
D176*
X0301108Y0044081D03*
D177*
X0300936Y0046345D03*
X0311418Y0044105D03*
X0310852Y0051659D03*
X0297097Y0056089D03*
D178*
X0301071Y0044105D03*
D179*
X0300812Y0044401D03*
X0300812Y0044425D03*
X0300788Y0044450D03*
X0311442Y0044130D03*
X0311467Y0044155D03*
D180*
X0301022Y0044155D03*
D181*
X0300825Y0046197D03*
X0300825Y0046221D03*
X0311504Y0044179D03*
D182*
X0300997Y0044179D03*
X0301046Y0046443D03*
D183*
X0300800Y0046172D03*
X0300751Y0044524D03*
X0311529Y0044204D03*
D184*
X0300972Y0044204D03*
D185*
X0300739Y0046074D03*
X0311541Y0044228D03*
X0297097Y0056187D03*
D186*
X0297097Y0056064D03*
X0300985Y0046394D03*
X0300960Y0044228D03*
D187*
X0300923Y0044253D03*
D188*
X0300899Y0044278D03*
X0300948Y0046369D03*
X0301391Y0051635D03*
D189*
X0300628Y0044844D03*
X0300677Y0044720D03*
X0311602Y0044302D03*
D190*
X0300886Y0044302D03*
X0297121Y0057048D03*
D191*
X0301625Y0049494D03*
X0300640Y0045803D03*
X0300640Y0044868D03*
X0300640Y0044819D03*
X0311639Y0044327D03*
D192*
X0300874Y0044327D03*
D193*
X0300628Y0044893D03*
X0300628Y0044942D03*
X0300628Y0045705D03*
X0300628Y0045754D03*
X0311652Y0044351D03*
X0311061Y0051512D03*
D194*
X0310876Y0051635D03*
X0301870Y0049371D03*
X0300862Y0044351D03*
D195*
X0300603Y0045163D03*
X0300603Y0045459D03*
X0300603Y0045582D03*
X0300603Y0045631D03*
X0300603Y0045680D03*
X0301588Y0049519D03*
X0311676Y0044401D03*
X0311676Y0044376D03*
D196*
X0300849Y0044376D03*
X0297109Y0057024D03*
D197*
X0297097Y0056285D03*
X0301132Y0051389D03*
X0301551Y0049543D03*
X0300591Y0045360D03*
X0311713Y0044425D03*
D198*
X0311725Y0044450D03*
X0311725Y0044474D03*
D199*
X0310926Y0051610D03*
X0301305Y0051561D03*
X0297097Y0056162D03*
X0297122Y0056974D03*
X0300763Y0044499D03*
X0300788Y0044474D03*
D200*
X0301071Y0051290D03*
X0311750Y0044499D03*
D201*
X0311775Y0044524D03*
X0301095Y0051315D03*
D202*
X0311787Y0044548D03*
D203*
X0300739Y0044548D03*
X0300714Y0044597D03*
D204*
X0311787Y0044573D03*
X0297121Y0056827D03*
D205*
X0300714Y0044622D03*
X0300739Y0044573D03*
D206*
X0311799Y0044597D03*
D207*
X0311824Y0044622D03*
D208*
X0311824Y0044647D03*
X0311233Y0051340D03*
X0301440Y0049617D03*
X0301046Y0051241D03*
D209*
X0301243Y0051512D03*
X0300751Y0046098D03*
X0300702Y0044647D03*
D210*
X0301022Y0051167D03*
X0311258Y0051315D03*
X0311848Y0044696D03*
X0311848Y0044671D03*
D211*
X0311885Y0044720D03*
X0301354Y0049691D03*
D212*
X0311873Y0044745D03*
D213*
X0300653Y0044745D03*
X0301194Y0051463D03*
D214*
X0301009Y0051143D03*
X0300985Y0051094D03*
X0301329Y0049716D03*
X0297121Y0056778D03*
X0311270Y0051290D03*
X0311295Y0051266D03*
X0311885Y0044770D03*
D215*
X0311898Y0044794D03*
D216*
X0300653Y0044794D03*
X0300603Y0045040D03*
D217*
X0311910Y0044819D03*
X0297097Y0056384D03*
D218*
X0311910Y0044844D03*
D219*
X0311910Y0044868D03*
X0311319Y0051217D03*
X0301305Y0049740D03*
D220*
X0311922Y0044893D03*
D221*
X0311947Y0044917D03*
X0311356Y0051167D03*
X0301268Y0049789D03*
X0300972Y0050995D03*
X0300972Y0051044D03*
X0297085Y0056408D03*
D222*
X0297097Y0056236D03*
X0311024Y0051536D03*
X0300714Y0046000D03*
X0300665Y0045902D03*
X0300616Y0044917D03*
D223*
X0300936Y0050872D03*
X0297121Y0056728D03*
X0311369Y0051143D03*
X0311393Y0051118D03*
X0311959Y0045016D03*
X0311934Y0044942D03*
D224*
X0311947Y0044967D03*
D225*
X0300616Y0044967D03*
D226*
X0300960Y0050970D03*
X0311984Y0045065D03*
X0311959Y0044991D03*
D227*
X0300603Y0044991D03*
X0300603Y0045065D03*
X0297109Y0056876D03*
D228*
X0297109Y0056901D03*
X0300653Y0045877D03*
X0300653Y0045852D03*
X0300653Y0045828D03*
X0300603Y0045656D03*
X0300603Y0045016D03*
D229*
X0311971Y0045040D03*
D230*
X0311984Y0045090D03*
X0311344Y0051192D03*
D231*
X0300640Y0045779D03*
X0300591Y0045213D03*
X0300591Y0045090D03*
D232*
X0311996Y0045114D03*
D233*
X0300591Y0045114D03*
X0300591Y0045237D03*
X0300591Y0045311D03*
X0300591Y0045557D03*
D234*
X0300923Y0050749D03*
X0311996Y0045188D03*
X0311996Y0045139D03*
D235*
X0311098Y0051487D03*
X0301157Y0051413D03*
X0300616Y0045729D03*
X0300591Y0045606D03*
X0300591Y0045508D03*
X0300591Y0045409D03*
X0300591Y0045139D03*
D236*
X0301132Y0049962D03*
X0300935Y0050774D03*
X0300935Y0050798D03*
X0300935Y0050823D03*
X0300935Y0050847D03*
X0311393Y0051094D03*
X0311418Y0051069D03*
X0311418Y0051044D03*
X0311443Y0051020D03*
X0312008Y0045163D03*
D237*
X0300579Y0045188D03*
X0300579Y0045262D03*
X0300579Y0045336D03*
X0300579Y0045385D03*
X0300579Y0045434D03*
X0300579Y0045483D03*
X0297085Y0056261D03*
D238*
X0312021Y0045286D03*
X0312021Y0045213D03*
D239*
X0312008Y0045237D03*
X0300935Y0050724D03*
X0297097Y0056458D03*
X0297122Y0056704D03*
D240*
X0300948Y0050626D03*
X0301095Y0050035D03*
X0301095Y0050011D03*
X0312021Y0045336D03*
X0312021Y0045262D03*
D241*
X0300579Y0045286D03*
D242*
X0300948Y0050478D03*
X0312021Y0045311D03*
D243*
X0312033Y0045360D03*
X0312033Y0045385D03*
X0312033Y0045409D03*
X0312033Y0045434D03*
X0312033Y0045483D03*
X0311442Y0050995D03*
X0301058Y0050109D03*
X0300985Y0050282D03*
X0300985Y0050306D03*
X0300960Y0050380D03*
X0300960Y0050429D03*
X0300936Y0050503D03*
X0300936Y0050528D03*
X0300936Y0050552D03*
X0300936Y0050577D03*
X0300936Y0050651D03*
D244*
X0300972Y0050405D03*
X0300972Y0050355D03*
X0300972Y0050331D03*
X0301022Y0050183D03*
X0297085Y0056482D03*
X0311504Y0050872D03*
X0311504Y0050847D03*
X0312045Y0045680D03*
X0312045Y0045631D03*
X0312045Y0045582D03*
X0312045Y0045508D03*
X0312045Y0045459D03*
D245*
X0312045Y0045532D03*
D246*
X0300603Y0045532D03*
D247*
X0312045Y0045557D03*
D248*
X0312057Y0045606D03*
X0312057Y0045656D03*
X0312057Y0045705D03*
X0312057Y0045729D03*
X0311516Y0050798D03*
X0311516Y0050823D03*
X0297122Y0056655D03*
D249*
X0301219Y0051487D03*
X0301661Y0049469D03*
X0300677Y0045926D03*
D250*
X0300702Y0045975D03*
D251*
X0300714Y0046025D03*
D252*
X0300739Y0046049D03*
D253*
X0300776Y0046123D03*
X0300776Y0046148D03*
X0301760Y0049420D03*
X0301268Y0051536D03*
X0310963Y0051586D03*
D254*
X0300849Y0046246D03*
X0297109Y0056999D03*
D255*
X0300874Y0046271D03*
D256*
X0300899Y0046295D03*
D257*
X0300899Y0046320D03*
D258*
X0301059Y0046468D03*
X0297097Y0056015D03*
D259*
X0297097Y0057171D03*
X0301132Y0046517D03*
D260*
X0301169Y0046541D03*
D261*
X0301206Y0046566D03*
X0301575Y0051733D03*
X0297097Y0055916D03*
D262*
X0297109Y0055818D03*
X0301342Y0046640D03*
D263*
X0301403Y0046664D03*
X0297097Y0055769D03*
D264*
X0301465Y0046689D03*
D265*
X0301526Y0046714D03*
D266*
X0301588Y0046738D03*
D267*
X0301797Y0046787D03*
D268*
X0301907Y0046812D03*
D269*
X0302744Y0046861D03*
D270*
X0302744Y0046886D03*
D271*
X0302769Y0046910D03*
D272*
X0302781Y0046935D03*
D273*
X0302769Y0046960D03*
D274*
X0302793Y0046984D03*
D275*
X0302793Y0047009D03*
D276*
X0302818Y0047033D03*
D277*
X0302843Y0047107D03*
D278*
X0302843Y0047132D03*
D279*
X0302867Y0047157D03*
X0302867Y0047181D03*
D280*
X0302880Y0047206D03*
X0297122Y0054711D03*
D281*
X0302892Y0047230D03*
D282*
X0302904Y0047255D03*
D283*
X0302929Y0047280D03*
D284*
X0302916Y0047304D03*
D285*
X0302941Y0047329D03*
D286*
X0302966Y0047353D03*
X0297109Y0054784D03*
D287*
X0302953Y0047378D03*
D288*
X0302990Y0047403D03*
D289*
X0303002Y0047427D03*
X0297122Y0054809D03*
D290*
X0303003Y0047452D03*
D291*
X0303039Y0047476D03*
X0297085Y0058229D03*
D292*
X0303039Y0047501D03*
D293*
X0303064Y0047526D03*
D294*
X0303064Y0047550D03*
D295*
X0303101Y0047575D03*
D296*
X0303113Y0047599D03*
D297*
X0303126Y0047624D03*
X0303150Y0047649D03*
X0297122Y0054957D03*
X0297072Y0058131D03*
D298*
X0303175Y0047673D03*
D299*
X0303175Y0047698D03*
D300*
X0303212Y0047722D03*
X0303212Y0049125D03*
X0303212Y0049150D03*
X0297109Y0055006D03*
X0297109Y0055031D03*
D301*
X0303224Y0047747D03*
D302*
X0303248Y0047772D03*
D303*
X0303261Y0047796D03*
X0297109Y0055080D03*
D304*
X0297122Y0055104D03*
X0303298Y0048977D03*
X0303298Y0047821D03*
D305*
X0303310Y0047845D03*
D306*
X0303335Y0047870D03*
D307*
X0303359Y0047895D03*
X0303359Y0048904D03*
D308*
X0303396Y0047919D03*
D309*
X0303408Y0047944D03*
X0297109Y0055227D03*
D310*
X0303445Y0047969D03*
D311*
X0303470Y0047993D03*
X0297097Y0057836D03*
D312*
X0303507Y0048018D03*
D313*
X0303519Y0048042D03*
X0303519Y0048682D03*
X0297097Y0057762D03*
D314*
X0297097Y0057713D03*
X0303593Y0048092D03*
D315*
X0303667Y0048141D03*
D316*
X0303704Y0048165D03*
X0297109Y0055498D03*
D317*
X0303728Y0048190D03*
D318*
X0303778Y0048215D03*
X0301957Y0051832D03*
D319*
X0302535Y0049199D03*
X0303814Y0048239D03*
D320*
X0303864Y0048264D03*
D321*
X0303913Y0048288D03*
X0303937Y0048313D03*
X0297097Y0055720D03*
X0297097Y0057393D03*
D322*
X0303876Y0048362D03*
D323*
X0303851Y0048387D03*
X0297109Y0057467D03*
D324*
X0303827Y0048411D03*
D325*
X0303778Y0048436D03*
D326*
X0303765Y0048461D03*
D327*
X0303741Y0048485D03*
D328*
X0303704Y0048510D03*
X0297109Y0057614D03*
D329*
X0303667Y0048534D03*
D330*
X0303655Y0048559D03*
X0297109Y0055449D03*
D331*
X0303630Y0048584D03*
D332*
X0303593Y0048608D03*
X0297097Y0057688D03*
D333*
X0303581Y0048633D03*
D334*
X0303507Y0048707D03*
D335*
X0303494Y0048731D03*
D336*
X0303470Y0048756D03*
D337*
X0303433Y0048805D03*
D338*
X0303408Y0048830D03*
D339*
X0303384Y0048854D03*
D340*
X0303322Y0048928D03*
D341*
X0303322Y0048953D03*
D342*
X0303285Y0049002D03*
D343*
X0303261Y0049051D03*
X0297109Y0055055D03*
D344*
X0303236Y0049076D03*
D345*
X0303236Y0049100D03*
X0297085Y0058057D03*
D346*
X0302769Y0049174D03*
D347*
X0302363Y0049223D03*
X0310434Y0051807D03*
D348*
X0301994Y0049322D03*
X0301477Y0051684D03*
D349*
X0301920Y0049346D03*
X0297097Y0057073D03*
D350*
X0301317Y0051586D03*
X0301809Y0049396D03*
D351*
X0301711Y0049445D03*
D352*
X0301502Y0049568D03*
X0297097Y0056310D03*
D353*
X0301477Y0049593D03*
D354*
X0301415Y0049642D03*
X0301071Y0051266D03*
X0311209Y0051364D03*
D355*
X0305931Y0054686D03*
X0300985Y0051069D03*
X0300960Y0051020D03*
X0301280Y0049765D03*
X0297122Y0056753D03*
D356*
X0300948Y0050946D03*
X0301243Y0049814D03*
D357*
X0301219Y0049839D03*
D358*
X0301194Y0049863D03*
X0301194Y0049888D03*
X0301145Y0049912D03*
X0300948Y0050897D03*
X0300948Y0050921D03*
D359*
X0301157Y0049937D03*
D360*
X0301120Y0049986D03*
X0311455Y0050970D03*
D361*
X0301071Y0050085D03*
X0301071Y0050060D03*
X0301022Y0050158D03*
X0300923Y0050601D03*
X0300923Y0050675D03*
D362*
X0300997Y0050257D03*
X0301046Y0050134D03*
X0311479Y0050897D03*
X0311479Y0050921D03*
X0311529Y0050749D03*
D363*
X0311467Y0050946D03*
X0301009Y0050208D03*
X0300936Y0050700D03*
D364*
X0301009Y0050232D03*
D365*
X0314346Y0050355D03*
D366*
X0311541Y0050355D03*
D367*
X0311578Y0050405D03*
X0311578Y0050503D03*
X0311578Y0050577D03*
D368*
X0311578Y0050454D03*
D369*
X0300948Y0050454D03*
X0297109Y0056679D03*
D370*
X0297121Y0056630D03*
X0311541Y0050724D03*
X0311590Y0050478D03*
D371*
X0311590Y0050528D03*
X0311566Y0050552D03*
X0311566Y0050626D03*
X0311541Y0050675D03*
X0297097Y0056532D03*
D372*
X0297085Y0056507D03*
X0311553Y0050651D03*
X0311553Y0050601D03*
D373*
X0311553Y0050700D03*
D374*
X0311529Y0050774D03*
D375*
X0300997Y0051118D03*
D376*
X0301022Y0051192D03*
D377*
X0301034Y0051217D03*
D378*
X0311307Y0051241D03*
D379*
X0311172Y0051413D03*
X0301108Y0051340D03*
D380*
X0301120Y0051364D03*
D381*
X0311196Y0051389D03*
D382*
X0311135Y0051438D03*
X0297109Y0056851D03*
D383*
X0301169Y0051438D03*
D384*
X0311123Y0051463D03*
D385*
X0311012Y0051561D03*
D386*
X0301366Y0051610D03*
D387*
X0310754Y0051709D03*
D388*
X0301526Y0051709D03*
D389*
X0310667Y0051733D03*
D390*
X0301661Y0051758D03*
D391*
X0310507Y0051783D03*
D392*
X0301834Y0051807D03*
D393*
X0306103Y0051856D03*
D394*
X0306091Y0051881D03*
D395*
X0306091Y0051906D03*
D396*
X0306091Y0051930D03*
D397*
X0306078Y0051955D03*
D398*
X0306078Y0051979D03*
D399*
X0306091Y0052004D03*
D400*
X0306066Y0052102D03*
X0306066Y0052127D03*
D401*
X0306066Y0052176D03*
D402*
X0306066Y0052201D03*
D403*
X0306054Y0052250D03*
D404*
X0306066Y0052275D03*
D405*
X0306054Y0052299D03*
D406*
X0306054Y0052324D03*
D407*
X0306041Y0052348D03*
D408*
X0306054Y0052398D03*
D409*
X0306041Y0052422D03*
D410*
X0306041Y0052447D03*
D411*
X0306041Y0052471D03*
D412*
X0306029Y0052521D03*
D413*
X0306041Y0052545D03*
D414*
X0292938Y0052595D03*
X0292914Y0052570D03*
X0292889Y0052545D03*
D415*
X0306029Y0052570D03*
X0306029Y0052595D03*
D416*
X0306029Y0052619D03*
D417*
X0306029Y0052644D03*
D418*
X0292975Y0052644D03*
D419*
X0306029Y0052668D03*
D420*
X0293000Y0052668D03*
D421*
X0306017Y0052693D03*
D422*
X0293025Y0052693D03*
D423*
X0305918Y0052841D03*
X0305968Y0052791D03*
X0306017Y0052742D03*
D424*
X0293185Y0052865D03*
X0293160Y0052841D03*
X0293135Y0052816D03*
X0293086Y0052767D03*
X0293061Y0052742D03*
D425*
X0305980Y0052767D03*
D426*
X0293271Y0052964D03*
X0293123Y0052791D03*
D427*
X0305943Y0052816D03*
D428*
X0293344Y0053037D03*
X0293295Y0052988D03*
X0293197Y0052890D03*
D429*
X0305844Y0052914D03*
D430*
X0293221Y0052914D03*
D431*
X0305820Y0052939D03*
D432*
X0293258Y0052939D03*
D433*
X0305795Y0052964D03*
D434*
X0305746Y0053013D03*
X0305697Y0053062D03*
D435*
X0301108Y0060198D03*
X0292963Y0060198D03*
X0293381Y0053087D03*
X0293357Y0053062D03*
X0293308Y0053013D03*
D436*
X0305672Y0053087D03*
D437*
X0305660Y0053111D03*
D438*
X0301071Y0060149D03*
X0293000Y0060173D03*
X0293541Y0053259D03*
X0293492Y0053210D03*
X0293443Y0053136D03*
X0293394Y0053111D03*
D439*
X0305598Y0053160D03*
D440*
X0293443Y0053160D03*
D441*
X0305574Y0053185D03*
D442*
X0293468Y0053185D03*
D443*
X0305549Y0053210D03*
D444*
X0301046Y0060124D03*
X0301095Y0060173D03*
X0293025Y0060149D03*
X0293517Y0053234D03*
D445*
X0305463Y0053283D03*
X0305488Y0053259D03*
D446*
X0293763Y0053505D03*
X0293664Y0053382D03*
X0293566Y0053283D03*
D447*
X0305451Y0053308D03*
D448*
X0300911Y0059976D03*
X0300960Y0060026D03*
X0301034Y0060099D03*
X0293160Y0060001D03*
X0293061Y0060099D03*
X0293037Y0060124D03*
X0293628Y0053357D03*
X0293603Y0053333D03*
X0293578Y0053308D03*
D449*
X0305352Y0053382D03*
D450*
X0305328Y0053406D03*
D451*
X0300985Y0060050D03*
X0293111Y0060050D03*
X0293677Y0053406D03*
D452*
X0305291Y0053431D03*
D453*
X0300776Y0059829D03*
X0293689Y0053431D03*
D454*
X0305242Y0053480D03*
X0305266Y0053456D03*
D455*
X0300788Y0059853D03*
X0300837Y0059903D03*
X0300886Y0059952D03*
X0293381Y0059780D03*
X0293308Y0059853D03*
X0293283Y0059878D03*
X0293258Y0059903D03*
X0293873Y0053628D03*
X0293824Y0053579D03*
X0293800Y0053554D03*
X0293800Y0053530D03*
X0293726Y0053456D03*
D456*
X0293738Y0053480D03*
X0293246Y0059927D03*
X0293197Y0059952D03*
X0293197Y0059976D03*
X0293148Y0060026D03*
X0300825Y0059878D03*
X0300874Y0059927D03*
X0300923Y0060001D03*
D457*
X0305168Y0053530D03*
X0305217Y0053505D03*
D458*
X0305156Y0053554D03*
D459*
X0305119Y0053579D03*
D460*
X0305082Y0053603D03*
D461*
X0300603Y0059657D03*
X0300653Y0059706D03*
X0300702Y0059755D03*
X0293861Y0053603D03*
D462*
X0305057Y0053628D03*
D463*
X0305020Y0053653D03*
D464*
X0293886Y0053653D03*
X0293344Y0059804D03*
D465*
X0304996Y0053677D03*
D466*
X0293935Y0053677D03*
D467*
X0304959Y0053702D03*
D468*
X0300677Y0059730D03*
X0300726Y0059780D03*
X0293492Y0059657D03*
X0293443Y0059706D03*
X0293394Y0059755D03*
X0294033Y0053800D03*
X0293984Y0053751D03*
X0293935Y0053702D03*
D469*
X0304922Y0053726D03*
D470*
X0300493Y0059533D03*
X0300567Y0059607D03*
X0300591Y0059632D03*
X0300640Y0059681D03*
X0293529Y0059632D03*
X0293480Y0059681D03*
X0293431Y0059730D03*
X0294095Y0053874D03*
X0294070Y0053849D03*
X0294021Y0053776D03*
X0293972Y0053726D03*
D471*
X0304897Y0053751D03*
D472*
X0304860Y0053776D03*
D473*
X0304823Y0053800D03*
D474*
X0294255Y0054046D03*
X0294206Y0053997D03*
X0294156Y0053948D03*
X0294058Y0053825D03*
X0293615Y0059533D03*
X0300406Y0059435D03*
X0300456Y0059484D03*
D475*
X0304762Y0053849D03*
D476*
X0304725Y0053874D03*
D477*
X0304676Y0053899D03*
D478*
X0294132Y0053899D03*
X0293591Y0059558D03*
D479*
X0304651Y0053923D03*
D480*
X0294144Y0053923D03*
X0293578Y0059583D03*
X0300542Y0059583D03*
D481*
X0304602Y0053948D03*
D482*
X0304577Y0053972D03*
D483*
X0300320Y0059361D03*
X0300419Y0059460D03*
X0300468Y0059509D03*
X0293726Y0059435D03*
X0293677Y0059460D03*
X0293677Y0059484D03*
X0294292Y0054095D03*
X0294292Y0054071D03*
X0294243Y0054022D03*
X0294194Y0053972D03*
D484*
X0304528Y0053997D03*
D485*
X0304491Y0054022D03*
D486*
X0304454Y0054046D03*
D487*
X0304417Y0054071D03*
D488*
X0304380Y0054095D03*
D489*
X0304331Y0054120D03*
D490*
X0294476Y0054292D03*
X0294427Y0054243D03*
X0294427Y0054219D03*
X0294378Y0054194D03*
X0294329Y0054120D03*
X0293787Y0059361D03*
D491*
X0304282Y0054145D03*
D492*
X0300369Y0059386D03*
X0294341Y0054145D03*
D493*
X0304257Y0054169D03*
D494*
X0294378Y0054169D03*
D495*
X0304208Y0054194D03*
D496*
X0304159Y0054219D03*
D497*
X0304110Y0054243D03*
D498*
X0300099Y0059115D03*
X0300173Y0059189D03*
X0300197Y0059214D03*
X0300222Y0059238D03*
X0293947Y0059189D03*
X0293923Y0059214D03*
X0293898Y0059238D03*
X0294513Y0054317D03*
X0294464Y0054268D03*
D499*
X0304024Y0054292D03*
D500*
X0303974Y0054317D03*
D501*
X0303925Y0054342D03*
D502*
X0299939Y0058943D03*
X0299988Y0058992D03*
X0294673Y0054514D03*
X0294526Y0054342D03*
D503*
X0303888Y0054366D03*
D504*
X0294550Y0054366D03*
D505*
X0303814Y0054391D03*
D506*
X0294575Y0054391D03*
D507*
X0303778Y0054415D03*
D508*
X0294599Y0054415D03*
X0294058Y0059091D03*
D509*
X0303716Y0054440D03*
D510*
X0294747Y0054588D03*
X0294649Y0054465D03*
X0294599Y0054440D03*
X0294009Y0059115D03*
D511*
X0305943Y0054489D03*
D512*
X0299681Y0054489D03*
D513*
X0299656Y0054514D03*
X0299631Y0054538D03*
X0299582Y0054588D03*
D514*
X0305931Y0054538D03*
D515*
X0305968Y0054563D03*
D516*
X0299619Y0054563D03*
X0299570Y0054612D03*
D517*
X0305943Y0054588D03*
D518*
X0305943Y0054760D03*
X0294772Y0054612D03*
D519*
X0297097Y0056113D03*
X0305931Y0054637D03*
D520*
X0299533Y0054637D03*
D521*
X0294796Y0054637D03*
X0299816Y0058820D03*
D522*
X0305968Y0054661D03*
D523*
X0297109Y0054661D03*
D524*
X0297121Y0054686D03*
X0297072Y0058377D03*
D525*
X0305980Y0054711D03*
D526*
X0297122Y0054760D03*
D527*
X0305955Y0054784D03*
D528*
X0305992Y0054809D03*
D529*
X0305943Y0054834D03*
D530*
X0297109Y0054834D03*
D531*
X0306017Y0054858D03*
D532*
X0297122Y0054858D03*
D533*
X0305943Y0054883D03*
D534*
X0297109Y0054883D03*
D535*
X0297109Y0054907D03*
D536*
X0297121Y0054932D03*
D537*
X0297109Y0054981D03*
D538*
X0297109Y0055129D03*
D539*
X0297109Y0055154D03*
D540*
X0297109Y0055178D03*
D541*
X0297109Y0055203D03*
D542*
X0297109Y0055252D03*
D543*
X0297109Y0055277D03*
D544*
X0297109Y0055301D03*
D545*
X0297109Y0055326D03*
D546*
X0297109Y0055375D03*
D547*
X0297109Y0055400D03*
D548*
X0297109Y0055424D03*
D549*
X0297109Y0055473D03*
D550*
X0297109Y0055523D03*
D551*
X0297109Y0055572D03*
D552*
X0297109Y0055596D03*
D553*
X0297109Y0055646D03*
D554*
X0297109Y0055670D03*
D555*
X0297109Y0055744D03*
D556*
X0297097Y0055843D03*
D557*
X0297097Y0055867D03*
D558*
X0297097Y0055892D03*
D559*
X0297097Y0055966D03*
D560*
X0297097Y0056138D03*
D561*
X0297085Y0056335D03*
D562*
X0297097Y0056359D03*
D563*
X0297085Y0056433D03*
D564*
X0297085Y0056556D03*
D565*
X0297097Y0056581D03*
D566*
X0297109Y0056605D03*
D567*
X0297109Y0056802D03*
D568*
X0297109Y0056925D03*
D569*
X0297109Y0056950D03*
D570*
X0297109Y0057097D03*
D571*
X0297109Y0057122D03*
D572*
X0297109Y0057196D03*
D573*
X0297109Y0057220D03*
D574*
X0297097Y0057245D03*
D575*
X0297109Y0057294D03*
D576*
X0297109Y0057319D03*
D577*
X0297097Y0057344D03*
D578*
X0297109Y0057368D03*
D579*
X0297097Y0057417D03*
D580*
X0297097Y0057442D03*
D581*
X0297097Y0057491D03*
D582*
X0297097Y0057516D03*
D583*
X0297097Y0057540D03*
D584*
X0297109Y0057565D03*
D585*
X0297085Y0057590D03*
D586*
X0297097Y0057663D03*
D587*
X0297085Y0057786D03*
D588*
X0297097Y0057811D03*
D589*
X0297085Y0057860D03*
D590*
X0297097Y0057885D03*
D591*
X0297085Y0057909D03*
D592*
X0297085Y0057934D03*
D593*
X0297097Y0057959D03*
D594*
X0297085Y0057983D03*
D595*
X0297085Y0058008D03*
D596*
X0297097Y0058032D03*
D597*
X0297097Y0058082D03*
D598*
X0297097Y0058106D03*
D599*
X0297097Y0058156D03*
D600*
X0297085Y0058180D03*
D601*
X0297085Y0058205D03*
D602*
X0297085Y0058254D03*
D603*
X0297085Y0058279D03*
D604*
X0297085Y0058303D03*
D605*
X0297085Y0058328D03*
D606*
X0297085Y0058352D03*
D607*
X0297072Y0058402D03*
D608*
X0299459Y0058426D03*
X0299558Y0058549D03*
D609*
X0294698Y0058426D03*
D610*
X0294649Y0058475D03*
X0299471Y0058451D03*
D611*
X0299496Y0058475D03*
X0294673Y0058451D03*
X0294624Y0058500D03*
D612*
X0294513Y0058623D03*
X0294440Y0058697D03*
X0299533Y0058500D03*
D613*
X0299558Y0058525D03*
D614*
X0294599Y0058525D03*
D615*
X0294575Y0058549D03*
X0294526Y0058598D03*
D616*
X0294476Y0058648D03*
X0299594Y0058574D03*
D617*
X0299668Y0058648D03*
X0294550Y0058574D03*
X0294353Y0058771D03*
D618*
X0294452Y0058672D03*
X0299619Y0058598D03*
D619*
X0299644Y0058623D03*
D620*
X0299681Y0058672D03*
X0299804Y0058795D03*
X0294341Y0058795D03*
X0294292Y0058844D03*
D621*
X0294403Y0058721D03*
X0299718Y0058697D03*
D622*
X0299730Y0058721D03*
X0299754Y0058746D03*
X0294390Y0058746D03*
X0294267Y0058869D03*
X0294193Y0058943D03*
D623*
X0294243Y0058894D03*
X0294317Y0058820D03*
X0299779Y0058771D03*
D624*
X0299853Y0058844D03*
X0300025Y0059041D03*
X0294218Y0058918D03*
X0294095Y0059041D03*
D625*
X0299865Y0058869D03*
X0299964Y0058968D03*
D626*
X0299890Y0058894D03*
D627*
X0299914Y0058918D03*
D628*
X0300013Y0059017D03*
X0300062Y0059066D03*
X0294009Y0059140D03*
D629*
X0294070Y0059066D03*
X0294119Y0059017D03*
D630*
X0293984Y0059164D03*
X0300087Y0059091D03*
D631*
X0300124Y0059140D03*
D632*
X0300148Y0059164D03*
X0293849Y0059287D03*
D633*
X0293837Y0059312D03*
X0293886Y0059263D03*
X0300234Y0059263D03*
X0300283Y0059312D03*
D634*
X0300259Y0059287D03*
X0300308Y0059337D03*
X0293812Y0059337D03*
D635*
X0293763Y0059386D03*
D636*
X0293726Y0059410D03*
X0300369Y0059410D03*
D637*
X0293640Y0059509D03*
X0293541Y0059607D03*
D638*
X0300517Y0059558D03*
D639*
X0300739Y0059804D03*
D640*
X0293332Y0059829D03*
D641*
X0293086Y0060075D03*
X0301009Y0060075D03*
M02*
