%
M48
M72
T01C0.02756
T02C0.03200
T03C0.03543
T04C0.04000
T05C0.07874
T06C0.12598
%
T01
X61750Y18062
X104875Y16812
X102375Y52437
X137375Y73687
X137375Y91812
X213000Y91187
X213000Y73687
X244250Y58062
X308000Y71812
X308000Y31187
X215500Y16187
X169250Y40562
T02
X32124Y92752
X12124Y92752
X12124Y132122
X32124Y132122
T03
X263935Y122437
X263935Y112437
T04
X274250Y186812
X274250Y196812
X9250Y151807
X9250Y73067
T05
X283935Y92437
X283935Y132437
T06
X270549Y167555
X270549Y57319
X57951Y57319
X57951Y167555
M30
